<?xml version="1.0" standalone="no"?>
<!DOCTYPE svg PUBLIC "-//W3C//DTD SVG 20010904//EN"
 "http://www.w3.org/TR/2001/REC-SVG-20010904/DTD/svg10.dtd">
<svg version="1.0" xmlns="http://www.w3.org/2000/svg"
 width="1094.000000pt" height="324.000000pt" viewBox="0 0 1094.000000 324.000000"
 preserveAspectRatio="xMidYMid meet">

<g transform="translate(0.000000,324.000000) scale(0.100000,-0.100000)"
fill="#000000" stroke="none">
<path d="M1963 2969 c-64 -25 -131 -88 -163 -154 -20 -41 -25 -65 -25 -130 0
-130 54 -218 167 -275 81 -40 186 -43 264 -6 151 70 221 254 155 404 -32 70
-115 146 -183 167 -70 20 -152 18 -215 -6z m244 -22 c172 -91 215 -313 88
-455 -113 -126 -305 -131 -424 -10 -74 74 -101 194 -67 296 22 65 87 139 151
169 43 21 61 24 135 20 54 -2 97 -9 117 -20z"/>
<path d="M2041 2734 c-24 -30 -26 -55 -10 -87 16 -29 28 -37 61 -37 53 0 79
89 38 130 -28 28 -64 25 -89 -6z m78 -26 c16 -45 -22 -94 -53 -69 -16 13 -22
71 -9 84 15 16 54 6 62 -15z"/>
<path d="M5920 2969 c-75 -30 -151 -108 -176 -179 -84 -249 143 -479 393 -396
156 52 243 240 183 398 -26 70 -92 141 -158 170 -70 31 -172 34 -242 7z m245
-26 c55 -29 118 -99 140 -155 22 -60 18 -176 -10 -233 -26 -53 -87 -113 -144
-138 -66 -31 -179 -30 -241 2 -132 68 -196 207 -156 344 23 80 69 135 146 175
61 32 70 34 145 30 55 -3 93 -11 120 -25z"/>
<path d="M5887 2743 c-23 -26 -30 -68 -16 -95 16 -30 28 -38 61 -38 33 0 58
33 58 77 0 60 -66 96 -103 56z m75 -38 c9 -19 8 -29 -6 -50 -35 -54 -85 -6
-60 59 10 25 53 20 66 -9z"/>
<path d="M6145 2631 c-3 -6 1 -11 9 -11 12 0 16 -10 16 -40 0 -29 -4 -40 -15
-40 -8 0 -15 -4 -15 -10 0 -5 16 -10 35 -10 19 0 35 5 35 10 0 6 -4 10 -9 10
-6 0 -11 21 -13 47 -2 35 -7 49 -20 51 -9 2 -19 -2 -23 -7z"/>
<path d="M6008 2613 c-2 -10 0 -35 5 -55 7 -27 15 -38 28 -38 11 0 19 5 19 10
0 6 -7 10 -15 10 -8 0 -15 9 -15 20 0 11 7 23 15 26 8 4 15 10 15 15 0 5 -7 9
-15 9 -8 0 -15 5 -15 10 0 17 -18 11 -22 -7z"/>
<path d="M6078 2563 c6 -2 18 -2 25 0 6 3 1 5 -13 5 -14 0 -19 -2 -12 -5z"/>
<path d="M7663 2972 c-67 -24 -118 -64 -154 -120 -36 -58 -49 -101 -49 -173 0
-77 24 -140 76 -198 64 -71 134 -103 228 -104 94 0 165 32 230 104 54 60 76
121 76 209 0 117 -71 225 -179 273 -64 28 -163 32 -228 9z m223 -26 c178 -83
225 -310 95 -459 -81 -92 -230 -120 -343 -64 -219 108 -215 418 7 523 70 33
170 33 241 0z"/>
<path d="M7712 2754 c-17 -12 -22 -25 -22 -58 0 -49 22 -76 62 -76 36 0 58 29
58 78 0 42 -25 72 -60 72 -9 0 -26 -7 -38 -16z m62 -20 c9 -8 16 -26 16 -39 0
-23 -23 -55 -40 -55 -17 0 -40 32 -40 55 0 23 23 55 40 55 5 0 16 -7 24 -16z"/>
<path d="M7838 2633 c-14 -56 18 -121 46 -93 7 7 5 10 -7 10 -23 0 -22 39 1
56 16 13 16 13 0 14 -10 0 -18 7 -18 15 0 21 -17 19 -22 -2z"/>
<path d="M9370 2981 c-138 -45 -224 -158 -224 -297 0 -60 5 -81 32 -137 111
-225 424 -229 547 -6 27 48 30 63 30 139 0 70 -4 94 -24 134 -52 106 -146 167
-265 172 -39 2 -82 0 -96 -5z m222 -44 c95 -55 139 -129 146 -240 4 -72 2 -82
-27 -142 -38 -78 -98 -128 -179 -151 -226 -66 -434 159 -352 378 28 74 70 121
143 158 57 29 68 31 143 28 65 -3 90 -9 126 -31z"/>
<path d="M9270 2760 c-43 -43 -13 -130 44 -130 29 0 66 42 66 75 0 33 -37 75
-66 75 -13 0 -33 -9 -44 -20z m61 -10 c28 -15 26 -75 -2 -91 -17 -9 -25 -8
-36 4 -19 18 -20 61 -3 82 15 18 16 18 41 5z"/>
<path d="M9398 2642 c-9 -32 4 -82 23 -92 10 -6 20 -6 23 -1 3 5 -1 11 -9 15
-20 7 -19 36 3 52 16 13 16 13 0 14 -10 0 -18 7 -18 15 0 21 -17 19 -22 -3z"/>
<path d="M9600 2650 c0 -5 7 -10 15 -10 21 0 21 -68 0 -76 -8 -4 -12 -10 -9
-15 7 -12 51 -11 59 1 3 6 1 10 -4 10 -6 0 -11 21 -11 50 0 47 -2 50 -25 50
-14 0 -25 -4 -25 -10z"/>
<path d="M9510 2621 c0 -12 -8 -21 -22 -24 l-23 -4 23 -2 c15 -1 22 -7 22 -21
0 -11 5 -20 10 -20 6 0 10 9 10 19 0 12 8 21 23 24 l22 4 -22 2 c-16 1 -23 7
-23 21 0 11 -4 20 -10 20 -5 0 -10 -9 -10 -19z"/>
<path d="M3102 2359 c3 -60 8 -74 27 -90 28 -23 59 -24 89 -3 19 13 22 24 22
90 0 43 -4 74 -10 74 -6 0 -10 -29 -10 -68 0 -72 -10 -92 -45 -92 -35 0 -45
20 -45 92 0 56 -3 68 -16 68 -14 0 -16 -11 -12 -71z"/>
<path d="M3427 2423 c-4 -3 -7 -14 -7 -24 0 -9 -6 -20 -12 -22 -10 -4 -10 -6
0 -6 8 -1 12 -20 12 -61 0 -33 4 -60 10 -60 6 0 10 25 10 55 0 41 4 56 18 64
16 10 16 10 0 11 -22 0 -24 18 -3 26 8 4 15 10 15 15 0 10 -33 12 -43 2z"/>
<path d="M3620 2340 c0 -53 4 -90 10 -90 6 0 10 37 10 90 0 53 -4 90 -10 90
-6 0 -10 -37 -10 -90z"/>
<path d="M3760 2402 c0 -26 -3 -28 -28 -24 -36 5 -62 -19 -62 -57 0 -43 22
-64 69 -67 l41 -2 0 89 c0 53 -4 89 -10 89 -5 0 -10 -13 -10 -28z m0 -77 c0
-35 -10 -55 -29 -55 -39 0 -55 54 -25 84 21 21 54 4 54 -29z"/>
<path d="M3280 2314 c0 -77 18 -86 22 -11 3 48 5 52 31 55 27 3 27 2 27 -52 0
-32 4 -56 10 -56 7 0 10 24 8 63 l-3 62 -47 1 -48 2 0 -64z"/>
<path d="M3496 2365 c-26 -26 -21 -81 9 -101 54 -36 112 22 83 83 -16 34 -66
44 -92 18z m74 -51 c0 -38 -21 -54 -49 -37 -23 14 -27 64 -5 80 27 20 54 -1
54 -43z"/>
<path d="M882 2285 c-174 -38 -333 -164 -410 -325 -85 -180 -92 -391 -18 -594
56 -156 174 -294 306 -358 102 -49 165 -62 295 -60 126 1 231 24 322 71 68 34
161 115 194 167 16 26 24 32 34 24 9 -8 14 -1 19 27 10 66 8 69 -29 33 -24
-23 -33 -40 -29 -52 4 -14 -13 -37 -63 -87 -114 -114 -226 -158 -428 -168 -94
-4 -134 -2 -184 11 -104 27 -189 74 -262 146 -137 136 -209 319 -209 532 1
197 55 335 179 458 127 125 253 174 451 174 258 0 417 -90 545 -309 21 -36 40
-63 43 -61 8 8 -65 129 -110 182 -52 62 -125 118 -195 151 -108 50 -315 67
-451 38z"/>
<path d="M2056 2249 c-19 -63 -19 -60 -2 -53 11 4 13 -18 8 -130 -3 -98 -2
-136 7 -136 8 0 11 40 11 135 0 114 2 134 15 129 13 -5 12 1 -1 48 -9 29 -18
55 -19 56 -2 2 -11 -20 -19 -49z"/>
<path d="M6008 2244 c-13 -45 -13 -54 -2 -50 11 4 14 -22 17 -132 l3 -137 2
139 c2 122 4 137 18 132 11 -4 15 -2 11 8 -3 8 -9 31 -13 50 -10 54 -19 51
-36 -10z"/>
<path d="M7753 2280 c-19 -45 -26 -93 -14 -86 8 5 11 -33 12 -131 1 -101 4
-127 10 -98 4 22 8 84 8 138 1 63 5 96 11 92 13 -8 12 0 -4 60 -13 47 -14 49
-23 25z"/>
<path d="M9441 2295 c-1 -5 -8 -32 -16 -59 -13 -43 -13 -47 1 -42 13 5 15 -11
13 -125 0 -71 2 -133 5 -136 3 -4 6 56 6 131 0 119 2 137 15 132 12 -4 14 0 9
22 -9 35 -32 90 -33 77z"/>
<path d="M2218 2094 l26 -75 21 47 21 48 12 -42 c11 -37 32 -58 32 -33 0 5 3
17 6 26 4 10 2 15 -6 13 -13 -3 -43 69 -34 83 3 5 -4 9 -16 9 -17 0 -19 -3
-10 -20 8 -14 7 -28 -4 -52 l-14 -33 -16 37 c-9 21 -16 44 -16 53 0 8 -7 15
-15 15 -11 0 -9 -15 13 -76z"/>
<path d="M2355 2160 c4 -6 11 -8 16 -5 14 9 11 15 -7 15 -8 0 -12 -5 -9 -10z"/>
<path d="M6169 2100 c14 -38 29 -70 32 -70 3 0 12 19 20 42 l13 41 22 -48 c19
-44 21 -46 27 -25 3 14 3 27 -1 30 -12 8 -32 59 -32 80 0 14 -7 20 -21 20 -18
0 -19 -3 -9 -15 12 -15 6 -70 -10 -80 -9 -6 -41 81 -32 89 3 3 -4 6 -15 6 -20
0 -20 -1 6 -70z"/>
<path d="M6307 2143 c-7 -39 -1 -40 11 -4 6 17 7 31 3 31 -5 0 -11 -12 -14
-27z"/>
<path d="M7877 2158 c5 -7 20 -42 33 -77 21 -57 24 -61 32 -41 5 13 5 26 1 29
-13 9 -33 60 -33 81 0 14 -7 20 -21 20 -16 0 -19 -3 -12 -12z"/>
<path d="M7955 2125 c0 -25 2 -40 3 -35 7 20 19 9 32 -31 14 -41 21 -39 34 11
6 19 5 21 -3 10 -8 -12 -13 -8 -26 22 -8 21 -15 44 -15 53 0 8 -6 15 -12 15
-9 0 -13 -16 -13 -45z"/>
<path d="M8043 2148 c-2 -18 0 -20 7 -8 12 18 13 30 2 30 -4 0 -9 -10 -9 -22z"/>
<path d="M9588 2100 c15 -38 29 -70 33 -70 3 0 12 18 19 41 l14 41 21 -48 c20
-45 22 -47 28 -24 3 13 2 27 -3 30 -13 8 -40 87 -33 94 4 3 -4 6 -17 6 -18 0
-20 -3 -10 -15 12 -15 6 -70 -10 -80 -10 -6 -42 73 -35 86 4 5 -3 9 -13 9 -19
0 -19 -3 6 -70z"/>
<path d="M9727 2143 c-7 -39 -1 -40 11 -4 6 17 7 31 3 31 -5 0 -11 -12 -14
-27z"/>
<path d="M3860 1947 c0 -46 -3 -99 -6 -116 l-6 -31 -454 0 -453 0 -20 -26
c-19 -24 -21 -40 -21 -160 0 -121 2 -136 20 -154 19 -19 33 -20 475 -20 l455
0 0 -74 c0 -40 3 -95 6 -121 l7 -47 213 213 212 212 -205 201 c-113 111 -209
203 -214 204 -5 2 -9 -34 -9 -81z m410 -327 c0 -3 -89 -92 -197 -197 l-198
-193 -6 103 c-4 56 -7 105 -8 110 0 4 -207 7 -460 7 -414 0 -460 2 -472 17
-10 11 -15 54 -17 142 -3 117 -2 128 18 154 l21 27 460 0 459 0 0 111 0 111
200 -193 c110 -107 200 -196 200 -199z"/>
<path d="M1334 1869 c-18 -19 -19 -39 -19 -255 0 -230 0 -234 23 -256 l23 -23
524 0 524 0 23 23 c23 22 23 26 23 256 0 216 -1 236 -19 255 -19 21 -23 21
-551 21 -528 0 -532 0 -551 -21z m1086 -9 c19 -19 20 -33 20 -245 0 -212 -1
-226 -20 -245 -19 -19 -33 -20 -535 -20 -502 0 -516 1 -535 20 -19 19 -20 33
-20 245 0 212 1 226 20 245 19 19 33 20 535 20 502 0 516 -1 535 -20z"/>
<path d="M1840 1630 c0 -60 4 -100 10 -100 6 0 10 18 10 41 0 49 15 79 39 79
23 0 31 -19 31 -77 0 -31 4 -43 13 -40 20 7 15 113 -6 134 -14 15 -22 16 -47
6 -30 -11 -30 -11 -30 23 0 19 -4 34 -10 34 -6 0 -10 -40 -10 -100z"/>
<path d="M5290 1870 c-19 -19 -20 -33 -20 -254 0 -215 2 -236 19 -257 l19 -24
513 -3 c355 -2 522 1 540 8 44 19 49 45 49 279 0 206 -1 220 -21 245 l-20 26
-530 0 c-516 0 -530 -1 -549 -20z m1078 -6 c22 -15 22 -19 22 -246 0 -201 -2
-234 -17 -250 -15 -17 -45 -18 -534 -18 -571 0 -542 -3 -554 63 -4 18 -5 121
-3 230 3 195 3 199 27 218 22 18 46 19 530 19 442 0 509 -2 529 -16z"/>
<path d="M5670 1630 c0 -60 4 -100 10 -100 6 0 10 18 10 41 0 49 15 79 39 79
23 0 31 -19 31 -77 0 -31 4 -43 13 -40 20 7 15 113 -6 134 -14 15 -22 16 -47
6 -30 -11 -30 -11 -30 23 0 19 -4 34 -10 34 -6 0 -10 -40 -10 -100z"/>
<path d="M5812 1543 c-21 -38 19 -126 45 -99 4 5 2 11 -4 13 -17 6 -17 50 -1
55 8 3 5 12 -9 27 -20 22 -22 22 -31 4z"/>
<path d="M5940 1550 c0 -5 7 -10 15 -10 11 0 15 -11 15 -35 0 -22 -6 -38 -15
-41 -27 -11 -16 -24 20 -24 19 0 35 5 35 10 0 6 -4 10 -10 10 -5 0 -10 23 -10
50 0 47 -2 50 -25 50 -14 0 -25 -4 -25 -10z"/>
<path d="M5883 1483 c9 -2 23 -2 30 0 6 3 -1 5 -18 5 -16 0 -22 -2 -12 -5z"/>
<path d="M7021 1864 c-20 -25 -21 -39 -21 -246 0 -248 5 -273 63 -283 17 -3
259 -5 535 -3 l504 3 19 24 c17 21 19 42 19 257 0 221 -1 235 -20 254 -19 19
-33 20 -549 20 l-530 0 -20 -26z m1077 0 c22 -15 22 -19 22 -249 0 -199 -2
-236 -16 -249 -14 -14 -76 -16 -531 -16 -467 0 -518 2 -535 17 -16 15 -18 36
-18 249 0 229 0 233 22 248 20 14 87 16 528 16 441 0 508 -2 528 -16z"/>
<path d="M7454 1717 c-10 -28 1 -180 14 -185 8 -2 12 11 12 45 0 51 12 73 41
73 21 0 29 -20 29 -76 0 -24 5 -44 10 -44 6 0 10 28 10 65 0 61 -2 66 -26 77
-20 9 -30 9 -45 0 -17 -11 -19 -9 -19 23 0 34 -16 48 -26 22z"/>
<path d="M7601 1542 c-20 -37 20 -124 46 -98 4 4 0 12 -10 17 -22 13 -22 35
-1 47 15 8 15 11 -4 30 -20 20 -22 20 -31 4z"/>
<path d="M8710 1870 c-19 -19 -20 -33 -20 -254 0 -215 2 -236 19 -257 l19 -24
513 -3 c355 -2 522 1 540 8 44 19 49 45 49 279 0 206 -1 220 -21 245 l-20 26
-530 0 c-516 0 -530 -1 -549 -20z m1080 -10 c19 -19 20 -33 20 -247 0 -197 -2
-229 -17 -245 -15 -17 -45 -18 -532 -18 -284 0 -521 4 -527 8 -29 19 -34 55
-34 262 0 211 0 211 25 235 l24 25 511 0 c497 0 511 -1 530 -20z"/>
<path d="M9060 1650 c0 -82 3 -100 15 -100 11 0 15 12 15 44 0 60 8 76 36 76
21 0 23 -5 26 -57 4 -81 28 -85 28 -5 0 72 -17 97 -62 88 -26 -5 -28 -3 -28
24 0 20 -5 30 -15 30 -12 0 -15 -18 -15 -100z"/>
<path d="M9207 1561 c-12 -47 26 -121 50 -97 4 4 0 12 -10 17 -21 12 -23 49
-2 49 8 0 15 5 15 10 0 6 -7 10 -15 10 -8 0 -15 7 -15 15 0 22 -17 18 -23 -4z"/>
<path d="M9410 1570 c0 -5 7 -10 15 -10 11 0 15 -11 15 -40 0 -30 -4 -40 -16
-40 -8 0 -12 -4 -9 -10 3 -5 19 -10 35 -10 16 0 32 5 35 10 3 6 -1 10 -9 10
-12 0 -16 11 -16 50 0 47 -2 50 -25 50 -14 0 -25 -4 -25 -10z"/>
<path d="M9320 1540 c0 -13 -7 -20 -20 -20 -11 0 -20 -4 -20 -10 0 -5 9 -10
20 -10 13 0 20 -7 20 -20 0 -11 5 -20 10 -20 6 0 10 8 10 19 0 10 10 22 23 26
l22 8 -22 4 c-15 3 -23 12 -23 24 0 10 -4 19 -10 19 -5 0 -10 -9 -10 -20z"/>
<path d="M210 1736 c0 -2 14 -34 31 -71 18 -40 34 -64 39 -59 6 6 0 29 -15 58
-14 27 -25 55 -25 63 0 7 -7 13 -15 13 -8 0 -15 -2 -15 -4z"/>
<path d="M317 1718 c-9 -31 -2 -33 11 -3 6 14 8 25 3 25 -5 0 -11 -10 -14 -22z"/>
<path d="M296 1665 c-9 -26 -7 -32 5 -12 6 10 9 21 6 23 -2 3 -7 -2 -11 -11z"/>
<path d="M8467 1664 c4 -12 -17 -14 -131 -14 -75 0 -136 -3 -136 -7 0 -5 61
-6 136 -4 122 3 136 1 131 -13 -7 -19 -1 -20 44 -5 19 6 40 13 48 15 19 6 13
10 -46 27 -44 13 -51 13 -46 1z"/>
<path d="M10160 1661 c0 -7 -41 -11 -130 -11 -80 0 -130 -4 -130 -10 0 -6 52
-10 136 -10 87 0 133 -4 129 -10 -8 -13 -4 -13 51 1 50 13 56 24 17 33 -16 3
-38 8 -50 12 -14 4 -23 2 -23 -5z"/>
<path d="M5090 1645 c10 -13 -6 -15 -127 -18 l-138 -3 139 -2 c127 -2 137 -3
125 -18 -12 -15 -11 -16 7 -10 12 3 41 12 65 19 l44 14 -57 16 c-69 21 -74 21
-58 2z"/>
<path d="M6783 1647 c5 -15 -9 -17 -131 -20 l-137 -3 137 -2 c116 -2 137 -4
132 -17 -5 -13 1 -12 48 1 29 9 55 18 57 19 1 2 -16 9 -39 15 -23 6 -49 14
-57 17 -12 5 -15 2 -10 -10z"/>
<path d="M10022 1572 c27 -65 64 -142 68 -142 3 0 19 34 37 75 25 60 28 75 16
75 -8 0 -13 -6 -10 -12 2 -7 -5 -35 -17 -62 l-22 -50 -22 52 c-13 29 -20 57
-17 62 3 6 -3 10 -15 10 -12 0 -20 -4 -18 -8z"/>
<path d="M10545 1571 c-6 -11 9 -23 19 -14 9 9 7 23 -3 23 -6 0 -12 -4 -16 -9z"/>
<path d="M10640 1565 c0 -8 5 -15 10 -15 6 0 10 7 10 15 0 8 -4 15 -10 15 -5
0 -10 -7 -10 -15z"/>
<path d="M10730 1571 c0 -6 5 -13 10 -16 6 -3 10 1 10 9 0 9 -4 16 -10 16 -5
0 -10 -4 -10 -9z"/>
<path d="M8368 1488 c19 -40 35 -74 36 -75 1 -1 18 31 37 72 31 67 33 75 16
75 -10 0 -15 -5 -12 -10 7 -11 -23 -100 -34 -100 -11 0 -43 89 -36 100 4 6 -4
10 -18 10 l-23 0 34 -72z"/>
<path d="M6659 1522 c5 -9 21 -44 36 -77 23 -52 28 -58 37 -41 7 12 7 21 1 25
-16 10 -43 68 -43 91 0 13 -7 20 -20 20 -17 0 -19 -3 -11 -18z"/>
<path d="M6764 1514 c-2 -28 -1 -28 15 4 9 17 9 22 -1 22 -7 0 -14 -12 -14
-26z"/>
<path d="M4410 1515 c0 -8 5 -15 10 -15 6 0 10 7 10 15 0 8 -4 15 -10 15 -5 0
-10 -7 -10 -15z"/>
<path d="M4500 1515 c0 -8 7 -15 15 -15 8 0 15 7 15 15 0 8 -7 15 -15 15 -8 0
-15 -7 -15 -15z"/>
<path d="M4600 1515 c0 -8 5 -15 10 -15 6 0 10 7 10 15 0 8 -4 15 -10 15 -5 0
-10 -7 -10 -15z"/>
<path d="M4906 1524 c6 -2 24 -36 40 -74 30 -73 38 -82 47 -52 2 9 8 26 12 37
8 20 7 20 -7 1 -15 -19 -16 -17 -37 28 -11 27 -18 52 -15 57 3 5 -7 9 -23 8
-15 0 -23 -3 -17 -5z"/>
<path d="M5025 1520 c3 -5 1 -19 -5 -31 -7 -11 -10 -23 -8 -25 3 -2 12 12 21
31 15 31 15 35 1 35 -8 0 -12 -4 -9 -10z"/>
<path d="M6746 1465 c-9 -26 -7 -32 5 -12 6 10 9 21 6 23 -2 3 -7 -2 -11 -11z"/>
<path d="M2073 1240 c-18 -45 -26 -93 -14 -86 8 5 11 -32 11 -129 0 -88 4
-134 10 -130 6 4 10 60 10 136 0 84 4 128 10 124 13 -8 11 21 -4 70 -13 39
-13 40 -23 15z"/>
<path d="M6021 1222 c-7 -24 -15 -50 -18 -58 -4 -10 0 -12 12 -8 15 6 17 -4
14 -124 -2 -72 0 -134 4 -138 4 -4 7 55 7 130 0 119 2 137 15 132 12 -4 14 0
9 22 -4 15 -12 41 -19 57 l-12 30 -12 -43z"/>
<path d="M7748 1206 c-12 -44 -12 -53 -1 -49 10 4 13 -22 15 -133 l2 -139 6
135 c4 100 8 134 18 133 15 -4 15 -1 0 51 -17 61 -23 62 -40 2z"/>
<path d="M9435 1208 c-18 -63 -18 -59 2 -51 15 6 16 -5 9 -125 -4 -86 -3 -133
4 -137 7 -4 10 39 10 130 0 122 2 136 16 131 11 -4 15 -2 11 8 -3 8 -11 33
-17 55 -6 23 -13 41 -15 41 -2 0 -11 -23 -20 -52z"/>
<path d="M2298 1053 c5 -76 6 -79 43 -88 43 -11 67 19 71 93 3 39 0 62 -6 62
-7 0 -10 -24 -8 -65 4 -61 2 -65 -22 -76 -43 -20 -58 2 -54 78 2 52 0 63 -12
63 -13 0 -15 -12 -12 -67z"/>
<path d="M6248 1055 c3 -53 8 -68 25 -80 12 -8 28 -15 37 -15 8 0 4 6 -10 13
-23 12 -25 18 -25 80 0 53 -3 67 -15 67 -12 0 -14 -12 -12 -65z"/>
<path d="M6358 1073 c6 -64 9 -64 13 -4 3 33 0 51 -7 51 -8 0 -10 -16 -6 -47z"/>
<path d="M7980 1054 c6 -68 22 -94 60 -94 38 0 54 26 60 94 3 42 2 66 -5 66
-6 0 -9 -23 -7 -58 4 -63 -11 -92 -48 -92 -29 0 -43 36 -38 96 4 45 2 54 -11
54 -14 0 -16 -10 -11 -66z"/>
<path d="M9668 1055 c3 -53 8 -68 25 -80 12 -8 28 -15 37 -15 8 0 4 6 -10 13
-23 12 -25 18 -25 80 0 53 -3 67 -15 67 -12 0 -14 -12 -12 -65z"/>
<path d="M9770 1111 c0 -17 18 -21 24 -6 3 9 0 15 -9 15 -8 0 -15 -4 -15 -9z"/>
<path d="M9762 990 c-8 -13 -8 -20 -2 -20 6 0 13 7 17 15 9 24 -1 27 -15 5z"/>
<path d="M6340 985 c-8 -9 -8 -15 -2 -15 12 0 26 19 19 26 -2 2 -10 -2 -17
-11z"/>
<path d="M1983 792 c-131 -47 -204 -151 -205 -293 0 -90 29 -155 98 -218 64
-58 124 -81 214 -81 117 0 223 70 274 179 30 67 29 189 -2 253 -70 141 -236
211 -379 160z m222 -26 c85 -39 137 -102 160 -194 57 -220 -148 -412 -370
-348 -46 14 -70 29 -115 74 -70 71 -95 134 -88 226 17 208 223 329 413 242z"/>
<path d="M2049 544 c26 -33 26 -39 0 -76 -28 -39 -14 -51 18 -14 l25 29 23
-29 c30 -38 45 -23 17 16 -27 36 -27 35 -1 71 16 23 17 29 5 29 -8 0 -21 -9
-29 -20 l-14 -20 -18 20 c-28 31 -51 26 -26 -6z"/>
<path d="M5943 792 c-73 -26 -118 -60 -158 -117 -142 -207 7 -480 261 -478 73
1 135 26 193 79 70 62 94 114 99 211 4 78 2 88 -27 148 -34 69 -90 123 -155
150 -61 26 -153 29 -213 7z m222 -27 c61 -30 120 -94 144 -159 43 -115 20
-219 -67 -306 -71 -70 -134 -95 -226 -88 -111 9 -203 75 -249 177 -26 58 -28
169 -3 224 25 56 94 127 151 154 42 20 62 23 130 21 53 -3 93 -10 120 -23z"/>
<path d="M5896 568 c4 -7 14 -21 22 -30 13 -16 12 -21 -12 -53 -30 -38 -14
-51 19 -15 l18 20 22 -20 c35 -33 49 -23 20 14 l-25 33 20 26 c11 14 20 28 20
31 0 14 -23 4 -40 -16 l-17 -22 -12 22 c-6 12 -19 22 -27 22 -9 0 -12 -5 -8
-12z"/>
<path d="M6027 451 c-2 -11 -2 -35 2 -53 5 -26 12 -33 31 -35 15 -1 18 0 8 3
-10 3 -18 15 -18 26 0 11 8 27 18 34 16 13 16 13 0 14 -10 0 -18 7 -18 15 0
22 -17 18 -23 -4z"/>
<path d="M6163 456 c20 -15 24 -82 5 -89 -7 -3 3 -5 22 -5 19 0 29 2 23 5 -8
3 -13 24 -13 54 0 47 -1 49 -27 49 -25 -1 -26 -2 -10 -14z"/>
<path d="M6095 400 c-3 -5 3 -10 15 -10 12 0 18 5 15 10 -3 6 -10 10 -15 10
-5 0 -12 -4 -15 -10z"/>
<path d="M7685 797 c-94 -31 -158 -88 -197 -172 -34 -75 -32 -181 5 -257 112
-228 437 -229 549 -1 58 119 41 244 -47 341 -73 81 -212 121 -310 89z m191
-24 c32 -11 66 -34 100 -68 65 -65 89 -129 82 -224 -8 -107 -58 -185 -150
-236 -47 -27 -63 -30 -138 -30 -76 0 -91 3 -139 30 -102 57 -151 142 -151 265
0 111 68 213 174 261 52 24 155 25 222 2z"/>
<path d="M7709 547 l20 -33 -25 -32 c-29 -36 -13 -44 22 -11 l23 21 13 -21 c7
-12 18 -21 25 -21 18 0 16 6 -8 40 l-22 28 22 29 c15 19 19 29 10 32 -6 2 -20
-7 -29 -19 l-18 -23 -11 21 c-6 12 -19 22 -27 22 -13 0 -12 -5 5 -33z"/>
<path d="M7827 451 c-2 -11 -2 -35 2 -53 5 -26 12 -33 31 -35 15 -1 18 0 8 3
-10 3 -18 15 -18 26 0 11 8 27 18 34 16 13 16 13 0 14 -10 0 -18 7 -18 15 0
22 -17 18 -23 -4z"/>
<path d="M9385 801 c-242 -64 -316 -365 -130 -529 127 -112 314 -99 429 29 59
65 80 129 74 223 -8 119 -67 205 -176 256 -48 23 -150 34 -197 21z m204 -42
c72 -36 124 -97 146 -172 33 -112 10 -204 -73 -287 -64 -64 -124 -90 -207 -90
-191 0 -335 191 -281 371 39 130 145 209 281 209 60 0 82 -5 134 -31z"/>
<path d="M9290 550 l22 -30 -22 -35 c-17 -28 -18 -35 -7 -35 8 0 22 10 30 23
l16 22 16 -22 c9 -13 23 -23 31 -23 12 0 11 6 -5 29 -26 36 -26 42 0 75 25 32
2 37 -26 6 l-18 -20 -14 20 c-8 11 -21 20 -29 20 -12 0 -11 -6 6 -30z"/>
<path d="M9417 455 c-3 -7 -3 -31 0 -54 5 -33 9 -41 27 -41 19 1 19 2 4 11
-22 12 -24 49 -3 49 20 0 19 6 -4 29 -15 15 -21 16 -24 6z"/>
<path d="M9620 460 c0 -5 5 -10 10 -10 15 0 12 -77 -2 -83 -7 -3 5 -5 27 -5
22 0 32 2 23 5 -14 3 -18 15 -18 54 0 42 -3 49 -20 49 -11 0 -20 -4 -20 -10z"/>
<path d="M9520 431 c0 -12 -8 -21 -22 -24 l-23 -4 23 -2 c15 -1 22 -7 22 -21
0 -11 5 -20 10 -20 6 0 10 9 10 19 0 12 8 21 23 24 l22 4 -22 2 c-16 1 -23 7
-23 21 0 11 -4 20 -10 20 -5 0 -10 -9 -10 -19z"/>
</g>
</svg>
