<svg version="1.1" id="Layer_1" xmlns="http://www.w3.org/2000/svg" xmlns:xlink="http://www.w3.org/1999/xlink" x="0px" y="0px"
	 width="100%" viewBox="0 0 3474 3473" enable-background="new 0 0 3474 3473" xml:space="preserve">
<path fill="#FFFFFF" opacity="1.000000" stroke="none" 
	d="
M2388.000000,3476.000000 
	C1592.000244,3476.000000 797.000488,3476.000000 2.000533,3476.000000 
	C2.000355,2318.000488 2.000355,1160.001221 2.000178,2.001310 
	C1159.999146,2.000873 2317.998291,2.000873 3475.998047,2.000437 
	C3475.998535,1159.998657 3475.998535,2317.997314 3475.999268,3475.998047 
	C3113.666748,3476.000000 2751.333252,3476.000000 2388.000000,3476.000000 
M1419.779053,2608.913330 
	C1416.990845,2609.989990 1414.216064,2611.103271 1411.412354,2612.137695 
	C1369.636353,2627.550293 1326.055664,2632.466797 1281.964355,2633.735352 
	C1257.318115,2634.444336 1232.637085,2633.934814 1207.971924,2634.022705 
	C1205.087891,2634.032959 1202.204956,2634.354004 1199.469360,2634.521729 
	C1197.593628,2649.696533 1198.185303,2772.572998 1200.026489,2779.345215 
	C1560.577026,2779.345215 1921.077759,2779.345215 2281.518799,2779.345215 
	C2283.409424,2758.174072 2282.602051,2641.493164 2280.464355,2634.000000 
	C2276.601074,2634.000000 2272.620117,2634.063965 2268.642090,2633.989990 
	C2235.331299,2633.371094 2201.993408,2633.361572 2168.719238,2631.903564 
	C2138.364014,2630.573242 2108.538574,2625.042725 2079.556152,2615.697998 
	C2021.222290,2596.889160 1978.322998,2560.722900 1954.292236,2503.552490 
	C1942.192261,2474.766113 1935.712280,2444.579102 1932.004395,2413.705566 
	C1928.420654,2383.866943 1927.974854,2353.895996 1927.979004,2323.890625 
	C1928.016724,2051.898682 1928.000977,1779.906616 1928.001099,1507.914673 
	C1928.001099,1290.587646 1928.001343,1073.260742 1928.001465,855.933716 
	C1928.001465,851.702942 1928.001465,847.472168 1928.001465,842.330627 
	C1932.436523,842.330627 1935.691528,842.294678 1938.945435,842.336121 
	C1972.599731,842.764832 2006.199585,843.846924 2039.698975,847.642944 
	C2088.181396,853.136841 2135.561035,863.243896 2181.448730,879.957764 
	C2262.866211,909.612915 2331.695312,956.902039 2384.731201,1026.000244 
	C2434.469238,1090.802124 2462.972412,1164.766113 2478.025146,1244.427490 
	C2487.275391,1293.382324 2490.702393,1342.822266 2490.323242,1392.577759 
	C2490.293701,1396.449463 2490.319336,1400.321533 2490.319336,1404.387329 
	C2532.775635,1404.387329 2573.916992,1404.387329 2615.019531,1404.387329 
	C2615.019531,1168.147095 2615.019531,932.651917 2615.019531,696.779480 
	C2031.860107,696.779480 1449.361328,696.779480 866.395874,696.779480 
	C866.395874,932.946838 866.395874,1168.650879 866.395874,1404.484253 
	C907.951416,1404.484253 948.784607,1404.484253 989.839600,1404.484253 
	C990.031067,1401.886597 990.232300,1399.918945 990.313110,1397.946167 
	C991.458008,1369.992920 992.026184,1342.002319 993.849609,1314.093750 
	C996.636963,1271.434326 1004.350891,1229.540039 1016.146057,1188.448975 
	C1036.377197,1117.969482 1068.911499,1054.052856 1118.393799,999.417358 
	C1172.955078,939.173889 1240.265625,898.962769 1317.094727,873.885315 
	C1392.045898,849.420898 1469.335938,842.078064 1547.667725,842.398743 
	C1549.195801,842.404968 1550.721436,843.067383 1552.875610,843.570068 
	C1552.875610,848.208923 1552.875610,852.505859 1552.875610,856.802795 
	C1552.875610,1147.127563 1552.915405,1437.452393 1552.862183,1727.777222 
	C1552.823975,1936.100952 1552.679565,2144.424805 1552.539185,2352.748535 
	C1552.512207,2392.879883 1548.639160,2432.579102 1537.880127,2471.376953 
	C1520.216797,2535.072510 1483.509277,2582.625977 1419.779053,2608.913330 
M2495.000000,1654.879883 
	C2396.467285,1654.879883 2297.934814,1654.879883 2199.080811,1654.879883 
	C2199.080811,1794.486328 2199.080811,1932.649658 2199.080811,2071.232178 
	C2338.024902,2071.232178 2476.440918,2071.232178 2615.195312,2071.232178 
	C2615.195312,1932.435669 2615.195312,1794.276367 2615.195312,1654.880493 
	C2575.480225,1654.880493 2536.240234,1654.880493 2495.000000,1654.879883 
M1268.915527,1655.113281 
	C1134.773560,1655.113281 1000.631653,1655.113281 866.182007,1655.113281 
	C866.182007,1794.617188 866.182007,1932.749023 866.182007,2070.803223 
	C879.536987,2072.844238 1274.920898,2072.255127 1281.475830,2070.340820 
	C1281.475830,1932.100464 1281.475830,1793.940063 1281.475830,1655.113037 
	C1277.491699,1655.113037 1274.191406,1655.113037 1268.915527,1655.113281 
z"/>
<path fill="#E2007E" opacity="1.000000" stroke="none" 
	d="
M1420.476074,2608.599365 
	C1483.509277,2582.625977 1520.216797,2535.072510 1537.880127,2471.376953 
	C1548.639160,2432.579102 1552.512207,2392.879883 1552.539185,2352.748535 
	C1552.679565,2144.424805 1552.823975,1936.100952 1552.862183,1727.777222 
	C1552.915405,1437.452393 1552.875610,1147.127563 1552.875610,856.802795 
	C1552.875610,852.505859 1552.875610,848.208923 1552.875610,843.570068 
	C1550.721436,843.067383 1549.195801,842.404968 1547.667725,842.398743 
	C1469.335938,842.078064 1392.045898,849.420898 1317.094727,873.885315 
	C1240.265625,898.962769 1172.955078,939.173889 1118.393799,999.417358 
	C1068.911499,1054.052856 1036.377197,1117.969482 1016.146057,1188.448975 
	C1004.350891,1229.540039 996.636963,1271.434326 993.849609,1314.093750 
	C992.026184,1342.002319 991.458008,1369.992920 990.313110,1397.946167 
	C990.232300,1399.918945 990.031067,1401.886597 989.839600,1404.484253 
	C948.784607,1404.484253 907.951416,1404.484253 866.395874,1404.484253 
	C866.395874,1168.650879 866.395874,932.946838 866.395874,696.779480 
	C1449.361328,696.779480 2031.860107,696.779480 2615.019531,696.779480 
	C2615.019531,932.651917 2615.019531,1168.147095 2615.019531,1404.387329 
	C2573.916992,1404.387329 2532.775635,1404.387329 2490.319336,1404.387329 
	C2490.319336,1400.321533 2490.293701,1396.449463 2490.323242,1392.577759 
	C2490.702393,1342.822266 2487.275391,1293.382324 2478.025146,1244.427490 
	C2462.972412,1164.766113 2434.469238,1090.802124 2384.731201,1026.000244 
	C2331.695312,956.902039 2262.866211,909.612915 2181.448730,879.957764 
	C2135.561035,863.243896 2088.181396,853.136841 2039.698975,847.642944 
	C2006.199585,843.846924 1972.599731,842.764832 1938.945435,842.336121 
	C1935.691528,842.294678 1932.436523,842.330627 1928.001465,842.330627 
	C1928.001465,847.472168 1928.001465,851.702942 1928.001465,855.933716 
	C1928.001343,1073.260742 1928.001099,1290.587646 1928.001099,1507.914673 
	C1928.000977,1779.906616 1928.016724,2051.898682 1927.979004,2323.890625 
	C1927.974854,2353.895996 1928.420654,2383.866943 1932.004395,2413.705566 
	C1935.712280,2444.579102 1942.192261,2474.766113 1954.292236,2503.552490 
	C1978.322998,2560.722900 2021.222290,2596.889160 2079.556152,2615.697998 
	C2108.538574,2625.042725 2138.364014,2630.573242 2168.719238,2631.903564 
	C2201.993408,2633.361572 2235.331299,2633.371094 2268.642090,2633.989990 
	C2272.620117,2634.063965 2276.601074,2634.000000 2280.464355,2634.000000 
	C2282.602051,2641.493164 2283.409424,2758.174072 2281.518799,2779.345215 
	C1921.077759,2779.345215 1560.577026,2779.345215 1200.026489,2779.345215 
	C1198.185303,2772.572998 1197.593628,2649.696533 1199.469360,2634.521729 
	C1202.204956,2634.354004 1205.087891,2634.032959 1207.971924,2634.022705 
	C1232.637085,2633.934814 1257.318115,2634.444336 1281.964355,2633.735352 
	C1326.055664,2632.466797 1369.636353,2627.550293 1411.412354,2612.137695 
	C1414.216064,2611.103271 1416.990845,2609.989990 1420.476074,2608.599365 
z"/>
<path fill="#E2017E" opacity="1.000000" stroke="none" 
	d="
M2496.000000,1654.880127 
	C2536.240234,1654.880493 2575.480225,1654.880493 2615.195312,1654.880493 
	C2615.195312,1794.276367 2615.195312,1932.435669 2615.195312,2071.232178 
	C2476.440918,2071.232178 2338.024902,2071.232178 2199.080811,2071.232178 
	C2199.080811,1932.649658 2199.080811,1794.486328 2199.080811,1654.879883 
	C2297.934814,1654.879883 2396.467285,1654.879883 2496.000000,1654.880127 
z"/>
<path fill="#E2007E" opacity="1.000000" stroke="none" 
	d="
M1269.903320,1655.113159 
	C1274.191406,1655.113037 1277.491699,1655.113037 1281.475830,1655.113037 
	C1281.475830,1793.940063 1281.475830,1932.100464 1281.475830,2070.340820 
	C1274.920898,2072.255127 879.536987,2072.844238 866.182007,2070.803223 
	C866.182007,1932.749023 866.182007,1794.617188 866.182007,1655.113281 
	C1000.631653,1655.113281 1134.773560,1655.113281 1269.903320,1655.113159 
z"/>
</svg>