<?xml version="1.0" standalone="no"?>
<!DOCTYPE svg PUBLIC "-//W3C//DTD SVG 20010904//EN"
 "http://www.w3.org/TR/2001/REC-SVG-20010904/DTD/svg10.dtd">
<svg version="1.0" xmlns="http://www.w3.org/2000/svg"
 width="768.000000pt" height="1082.000000pt" viewBox="0 0 768.000000 1082.000000"
 preserveAspectRatio="xMidYMid meet">

<g transform="translate(0.000000,1082.000000) scale(0.100000,-0.100000)"
fill="#000000" stroke="none">
<path d="M4718 10485 c-54 -31 -61 -135 -11 -175 25 -20 75 -26 108 -14 24 9
45 58 45 103 0 75 -77 122 -142 86z m99 -27 c25 -24 32 -83 12 -119 -26 -50
-107 -43 -129 12 -37 87 52 168 117 107z"/>
<path d="M5050 10461 c0 -11 -6 -22 -12 -25 -10 -5 -10 -7 0 -12 7 -3 12 -26
12 -58 0 -53 12 -76 40 -76 12 1 12 2 -2 11 -14 7 -18 23 -18 61 0 37 5 54 18
64 16 13 16 13 0 14 -11 0 -18 8 -18 20 0 11 -4 20 -10 20 -5 0 -10 -9 -10
-19z"/>
<path d="M5450 10461 c0 -11 -6 -22 -12 -25 -10 -5 -10 -7 0 -12 7 -3 12 -26
12 -58 0 -53 12 -76 40 -76 12 1 12 2 -2 11 -24 14 -26 119 -3 119 8 0 15 5
15 10 0 6 -7 10 -15 10 -8 0 -15 9 -15 20 0 11 -4 20 -10 20 -5 0 -10 -9 -10
-19z"/>
<path d="M4890 10378 c0 -78 9 -88 73 -86 l47 2 0 73 c0 42 -4 73 -10 73 -6 0
-10 -26 -10 -59 0 -64 -13 -85 -52 -79 -21 3 -23 9 -26 63 -4 85 -22 96 -22
13z"/>
<path d="M5132 10340 c0 -67 3 -90 7 -65 4 26 9 35 14 28 14 -22 74 -16 91 9
35 49 9 128 -42 128 -15 0 -34 -4 -42 -10 -9 -6 -17 -5 -22 3 -4 7 -7 -35 -6
-93z m92 74 c18 -18 21 -66 6 -95 -23 -42 -90 -8 -90 46 0 29 28 65 50 65 10
0 26 -7 34 -16z"/>
<path d="M5290 10384 c0 -81 10 -94 70 -92 l50 2 0 73 c0 42 -4 73 -10 73 -6
0 -10 -26 -10 -58 0 -62 -11 -82 -46 -82 -27 0 -34 17 -34 86 0 30 -4 54 -10
54 -5 0 -10 -25 -10 -56z"/>
<path d="M4360 10056 c0 -96 16 -143 22 -64 l3 43 52 3 c56 3 76 18 76 57 0
43 -19 55 -89 55 l-64 0 0 -94z m129 56 c17 -33 -5 -52 -59 -52 l-50 0 0 35 0
35 50 0 c37 0 52 -4 59 -18z"/>
<path d="M4788 10144 c-12 -11 -10 -182 2 -189 6 -3 10 -1 10 6 0 10 3 10 12
1 21 -21 75 -15 92 10 47 67 -19 160 -84 118 -12 -8 -16 -3 -20 26 -3 20 -8
32 -12 28z m96 -70 c18 -18 21 -66 6 -95 -15 -27 -56 -24 -76 6 -37 57 24 136
70 89z"/>
<path d="M5100 10053 l0 -98 46 -3 c61 -4 84 16 84 73 0 28 -6 47 -18 58 -21
19 -67 23 -78 6 -4 -7 0 -9 14 -5 38 12 62 -10 62 -57 0 -48 -13 -67 -46 -67
-32 0 -46 24 -44 72 4 74 0 118 -10 118 -6 0 -10 -39 -10 -97z"/>
<path d="M5260 10141 c0 -6 5 -13 10 -16 6 -3 10 1 10 9 0 9 -4 16 -10 16 -5
0 -10 -4 -10 -9z"/>
<path d="M5319 10148 c-6 -12 -3 -182 3 -191 4 -7 8 34 8 91 0 85 -3 116 -11
100z"/>
<path d="M5365 10141 c-3 -5 -1 -12 5 -16 5 -3 10 1 10 9 0 18 -6 21 -15 7z"/>
<path d="M5500 10141 c0 -6 5 -13 10 -16 6 -3 10 1 10 9 0 9 -4 16 -10 16 -5
0 -10 -4 -10 -9z"/>
<path d="M5430 10121 c0 -11 -6 -22 -12 -24 -10 -4 -10 -7 -1 -14 6 -5 13 -35
15 -68 3 -56 5 -60 28 -63 22 -2 23 -1 8 8 -13 8 -18 24 -18 62 0 37 5 54 18
64 16 13 16 13 0 14 -11 0 -18 8 -18 20 0 11 -4 20 -10 20 -5 0 -10 -9 -10
-19z"/>
<path d="M4540 10027 c0 -45 4 -77 10 -77 6 0 10 22 10 49 0 48 13 73 42 84 7
2 10 7 6 11 -3 4 -15 3 -26 -3 -13 -7 -22 -7 -30 1 -9 9 -12 -7 -12 -65z"/>
<path d="M4654 10092 c-22 -14 -36 -55 -30 -85 9 -44 24 -57 67 -57 59 0 87
56 58 113 -15 29 -28 37 -59 37 -14 0 -30 -4 -36 -8z m68 -19 c35 -31 13 -113
-30 -113 -45 0 -69 75 -35 112 20 22 41 23 65 1z"/>
<path d="M4962 10088 c-7 -7 -12 -19 -12 -27 0 -11 6 -9 21 8 26 28 63 25 67
-6 3 -19 -3 -23 -38 -29 -75 -12 -79 -84 -6 -84 18 0 37 5 44 12 9 9 12 9 12
0 0 -7 8 -12 17 -12 13 0 14 3 5 12 -7 7 -12 35 -12 63 0 59 -12 75 -55 75
-17 0 -36 -5 -43 -12z m78 -86 c0 -25 -19 -42 -47 -42 -31 0 -42 29 -18 46 28
20 65 18 65 -4z"/>
<path d="M5267 10093 c-11 -10 -8 -131 3 -138 6 -4 10 22 10 69 0 76 -1 82
-13 69z"/>
<path d="M5367 10093 c-11 -10 -8 -131 3 -138 6 -4 10 22 10 69 0 76 -1 82
-13 69z"/>
<path d="M5507 10093 c-11 -10 -8 -143 3 -143 6 0 10 32 10 75 0 75 -1 81 -13
68z"/>
<path d="M5584 10092 c-34 -22 -41 -94 -13 -129 18 -21 86 -17 99 7 12 23 -2
27 -20 5 -16 -19 -44 -19 -64 1 -31 31 -20 44 39 44 46 0 55 3 55 18 0 46 -59
79 -96 54z m57 -12 c10 -6 19 -20 19 -30 0 -17 -7 -20 -45 -20 -49 0 -56 11
-28 42 19 21 27 22 54 8z"/>
<path d="M5715 10084 c-9 -9 -14 -23 -11 -31 3 -8 6 -16 6 -18 0 -3 18 -9 41
-15 43 -12 61 -36 38 -51 -21 -13 -46 -11 -64 7 -20 20 -33 11 -15 -11 19 -23
87 -20 100 4 15 30 2 50 -42 63 -43 13 -60 35 -37 49 21 13 36 11 54 -7 20
-20 33 -11 15 11 -16 20 -64 19 -85 -1z"/>
<path d="M5071 9858 c-5 -13 -16 -40 -25 -62 -20 -48 -20 -45 4 -39 19 5 20 0
20 -81 l0 -86 -389 0 c-483 0 -441 17 -441 -176 0 -121 2 -136 20 -154 19 -19
33 -20 420 -20 252 0 400 -4 400 -10 0 -5 -11 -35 -25 -66 -14 -31 -25 -58
-25 -59 0 -2 9 -1 20 2 19 5 20 0 20 -81 l0 -86 -389 0 c-483 0 -441 17 -441
-174 0 -194 -45 -176 443 -176 218 0 397 -2 397 -5 0 -3 -11 -33 -25 -67 -14
-34 -25 -63 -25 -64 0 -1 9 0 21 3 18 5 20 2 17 -38 l-3 -44 -420 -5 c-296 -4
-428 -9 -447 -17 -44 -20 -110 -85 -129 -128 -18 -38 -19 -107 -19 -1427 l0
-1388 -40 0 c-53 0 -96 23 -120 63 -19 31 -20 55 -20 653 0 437 -3 631 -11
655 -15 43 -55 88 -96 105 -26 11 -131 14 -540 14 -474 0 -511 -2 -549 -19
-56 -25 -87 -71 -92 -138 l-4 -53 -623 0 c-677 0 -668 1 -743 -57 -19 -14 -45
-49 -58 -77 l-24 -51 0 -1635 c0 -1624 1 -1635 21 -1680 25 -56 53 -86 104
-113 40 -22 47 -22 683 -25 l642 -3 0 -165 0 -164 -27 -11 c-39 -14 -63 -38
-80 -77 l-14 -33 -117 3 -117 3 -6 35 c-14 87 -90 175 -177 204 -241 83 -457
-171 -336 -394 64 -117 199 -169 334 -129 63 18 154 110 170 170 7 24 14 50
16 56 2 10 35 13 121 13 l118 0 15 -33 c8 -17 30 -42 49 -54 91 -61 209 14
198 125 -5 48 -44 98 -84 108 -23 6 -23 8 -23 175 l0 168 428 3 c415 3 428 4
467 25 51 27 79 57 104 113 20 45 21 56 21 1680 l0 1635 -24 51 c-13 28 -39
63 -58 77 -72 56 -86 57 -529 57 l-409 0 0 38 c0 20 9 51 20 69 39 65 25 64
594 61 l514 -3 27 -25 c56 -51 55 -38 55 -710 0 -598 1 -622 20 -659 25 -49
77 -82 143 -90 l52 -6 5 -1071 5 -1071 30 -49 c34 -55 111 -107 172 -118 21
-3 212 -6 426 -6 l387 0 0 -182 0 -183 -37 -20 c-105 -57 -106 -185 -2 -237
19 -10 38 -19 42 -21 5 -1 -3 -31 -17 -65 -24 -59 -24 -63 -6 -57 18 6 20 1
20 -44 l0 -51 -374 0 c-384 0 -427 -4 -446 -40 -6 -11 -10 -144 -10 -324 0
-293 1 -307 20 -326 19 -19 33 -20 420 -20 265 0 400 -3 400 -10 0 -6 -11 -38
-25 -71 -23 -57 -23 -60 -5 -54 19 6 20 0 20 -174 0 -174 1 -181 20 -181 19 0
20 7 20 181 0 157 2 180 15 175 20 -7 19 2 -9 67 -14 30 -22 58 -19 61 4 3
185 6 403 6 391 0 397 0 416 21 18 20 19 40 19 330 0 308 0 309 -23 331 l-23
23 -389 3 -390 3 0 49 c0 40 3 48 15 43 15 -5 14 0 -32 113 -2 6 7 14 21 18
35 9 93 61 100 91 6 25 7 25 122 25 83 0 116 -3 118 -12 2 -7 9 -32 15 -55 15
-57 66 -121 124 -157 62 -38 160 -47 238 -21 185 62 241 314 99 455 -110 111
-300 107 -401 -8 -36 -41 -68 -106 -69 -139 0 -23 -2 -23 -120 -23 -116 0
-121 1 -129 23 -10 25 -45 59 -78 76 -23 11 -23 15 -23 196 l0 184 608 3 607
3 54 30 c57 32 91 69 116 128 13 32 15 310 15 2493 0 1900 -3 2466 -12 2498
-16 55 -99 138 -154 154 -30 9 -199 12 -638 12 l-596 0 0 46 c0 37 3 45 15 40
19 -7 19 -10 -10 62 -14 34 -25 64 -25 67 0 3 180 5 400 5 383 0 401 1 419 19
27 27 34 71 29 186 -3 92 -4 98 -31 121 l-28 24 -385 0 -384 0 0 86 c0 72 2
85 15 80 19 -7 19 -10 -10 62 -14 34 -25 64 -25 67 0 3 180 5 400 5 383 0 401
1 419 19 27 27 34 71 29 186 -3 92 -4 98 -31 121 l-28 24 -385 0 -384 0 0 91
c0 84 1 90 16 78 15 -12 16 -11 9 9 -11 37 -45 112 -51 112 -2 0 -8 -10 -13
-22z m802 -321 c15 -11 17 -28 15 -132 l-3 -120 -789 -3 c-574 -1 -792 1 -802
9 -10 8 -14 41 -14 125 0 97 2 114 18 123 27 16 1553 15 1575 -2z m5 -649 c8
-8 12 -51 12 -129 0 -97 -3 -118 -16 -123 -9 -3 -365 -6 -793 -6 -591 0 -780
3 -789 12 -8 8 -12 50 -12 125 0 96 2 113 18 122 26 16 1564 15 1580 -1z
m-810 -610 l-3 -53 -392 -5 c-354 -5 -394 -7 -413 -22 -18 -16 -20 -29 -20
-152 0 -193 -43 -176 442 -176 l389 0 -3 -32 -3 -33 -392 -5 c-354 -5 -394 -7
-413 -22 -19 -17 -20 -29 -20 -332 l0 -315 26 -20 c26 -20 37 -21 420 -21 217
0 394 -2 394 -5 0 -3 -11 -33 -25 -66 -23 -57 -23 -60 -5 -54 19 6 20 1 20
-89 l0 -96 -389 0 c-483 0 -441 17 -441 -174 0 -98 4 -137 14 -152 14 -18 33
-19 413 -24 l398 -5 3 -27 3 -27 -396 -3 -397 -3 -19 -24 c-18 -22 -19 -43
-19 -329 0 -374 -8 -352 137 -352 51 0 93 -2 93 -5 0 -3 -11 -32 -25 -65 -29
-70 -30 -71 -10 -64 41 16 -9 -77 -54 -101 -23 -11 -62 -15 -161 -15 l-130 0
0 1380 c0 1510 -4 1415 60 1478 60 61 56 60 508 61 l413 1 -3 -52z m1288 27
c51 -26 81 -57 102 -110 9 -23 12 -589 10 -2497 l-3 -2466 -30 -44 c-17 -23
-51 -54 -75 -68 l-45 -25 -602 -3 -603 -3 0 61 0 60 538 0 c499 0 540 2 577
19 50 22 92 71 100 114 3 18 5 352 3 744 -3 704 -3 712 -24 740 -42 57 -79 73
-166 73 -75 0 -79 1 -73 20 7 22 15 24 -112 -27 -10 -4 -13 11 -13 54 0 76
-14 117 -46 132 -17 7 -142 11 -404 11 l-380 0 0 50 0 50 548 0 547 0 40 23
c22 13 49 40 62 62 l23 40 0 588 c0 640 2 613 -57 670 -36 34 -80 47 -157 47
-48 0 -57 3 -52 15 3 8 4 15 2 15 -14 0 -116 -44 -116 -50 0 -7 95 -50 111
-50 5 0 6 7 3 15 -5 12 5 15 55 15 77 0 125 -20 151 -62 19 -32 20 -49 20
-611 0 -638 2 -618 -63 -657 -31 -19 -54 -20 -574 -20 l-543 0 0 34 c0 19 9
45 21 60 40 51 63 56 261 56 233 0 272 15 313 114 11 26 21 36 31 32 18 -7 14
10 -19 84 l-19 45 -20 -45 c-38 -87 -40 -93 -23 -86 22 8 19 -17 -6 -48 -40
-51 -63 -56 -264 -56 -165 0 -190 -2 -225 -20 -68 -35 -84 -69 -90 -195 l-5
-110 -391 -5 c-367 -5 -393 -6 -413 -24 -19 -18 -21 -30 -21 -152 0 -191 -42
-174 441 -174 l389 0 0 -30 0 -30 -392 0 c-388 0 -392 0 -415 -22 l-23 -21 0
-443 c0 -531 -12 -487 135 -492 68 -3 95 -7 92 -15 -49 -123 -48 -119 -28
-112 14 4 20 0 25 -18 9 -36 44 -75 87 -97 35 -18 59 -20 279 -20 l240 0 -2
-172 -3 -173 -410 0 c-401 0 -411 0 -450 22 -50 27 -80 58 -100 105 -13 33
-15 163 -15 1093 l0 1055 440 0 c351 0 447 3 474 14 40 17 92 78 100 118 4 22
10 29 22 24 12 -5 14 -1 8 17 -12 39 -44 110 -48 106 -2 -2 -15 -32 -29 -67
-24 -60 -24 -62 -5 -56 17 5 19 3 13 -18 -12 -37 -37 -66 -72 -83 -25 -12 -78
-15 -291 -15 l-261 0 24 43 c14 23 25 50 25 61 0 13 5 17 19 13 19 -5 19 -4
-1 47 -11 28 -23 59 -25 69 -5 16 33 17 700 17 679 0 706 1 728 19 l24 19 3
305 3 305 -25 28 -24 29 -391 3 -391 3 0 29 0 30 390 0 c373 0 391 1 409 19
27 27 34 71 29 186 -3 92 -4 98 -31 121 l-28 24 -385 0 -384 0 0 30 0 30 543
0 544 0 44 23 c27 15 52 38 66 63 23 39 23 41 23 526 0 319 -4 496 -11 515
-15 42 -68 92 -109 103 -19 5 -61 10 -92 10 -49 0 -56 2 -51 16 7 19 -10 15
-81 -17 l-41 -18 -3 27 c-6 66 -14 94 -33 113 -18 18 -36 19 -409 19 l-390 0
0 55 0 55 598 0 598 0 50 -25z m-482 -131 c13 -5 16 -26 16 -125 0 -107 -2
-119 -19 -129 -13 -7 -277 -10 -786 -10 -509 0 -773 3 -786 10 -17 10 -19 22
-19 123 0 75 4 117 12 125 9 9 198 12 789 12 428 0 784 -3 793 -6z m141 -149
c53 -23 56 -23 50 -5 -6 18 -1 20 55 20 76 0 124 -20 150 -62 19 -32 20 -49
20 -518 0 -463 -1 -486 -20 -517 -39 -65 -23 -63 -620 -63 l-540 0 0 45 c0 35
3 43 15 39 20 -8 19 -6 -10 60 -14 31 -25 59 -25 61 0 3 177 5 394 5 l395 0
28 24 28 24 3 279 c3 301 1 334 -29 364 -18 18 -36 19 -409 19 l-390 0 0 35 0
35 384 0 385 0 27 24 c24 20 28 32 32 90 2 36 8 66 13 66 5 0 34 -11 64 -25z
m-137 -273 c9 -7 12 -75 10 -308 l-3 -299 -800 0 -800 0 -3 294 c-2 208 1 298
9 307 10 12 143 14 793 14 429 0 787 -4 794 -8z m-5 -1025 c15 -11 17 -28 15
-132 l-3 -120 -800 0 -800 0 -3 120 c-2 104 0 121 15 132 25 19 1551 19 1576
0z m-3295 -149 l3 -68 -389 0 c-379 0 -390 -1 -416 -21 -23 -18 -26 -28 -26
-80 0 -67 -3 -69 -69 -39 -51 24 -61 25 -61 6 0 -11 -23 -15 -103 -18 -95 -3
-107 -5 -140 -31 -75 -57 -72 -32 -72 -602 0 -463 2 -513 17 -541 23 -43 71
-81 116 -94 23 -6 240 -10 590 -10 l552 0 0 -135 0 -135 -395 0 c-464 0 -435
7 -435 -106 0 -75 5 -73 -86 -36 -49 20 -52 20 -47 2 4 -17 -4 -18 -100 -22
-88 -2 -110 -6 -134 -24 -44 -33 -71 -80 -78 -137 -3 -29 -5 -295 -3 -592 3
-536 3 -540 25 -581 12 -23 39 -53 60 -65 l38 -24 578 -3 577 -3 0 -64 0 -65
-617 0 c-394 0 -631 4 -655 10 -50 14 -97 55 -119 105 -18 38 -19 110 -19
1665 0 1559 1 1627 19 1665 10 22 30 51 44 63 55 51 56 51 722 49 l620 -2 3
-67z m884 62 c50 -14 97 -55 119 -105 18 -38 19 -110 19 -1668 0 -1596 0
-1629 -20 -1666 -24 -48 -70 -87 -118 -101 -23 -6 -193 -10 -439 -10 l-403 0
0 175 0 175 238 0 c230 0 240 1 282 23 30 16 51 37 68 68 13 26 29 43 38 41
19 -4 18 8 -6 63 -11 26 -20 51 -20 56 0 5 36 9 80 9 89 0 123 11 139 47 7 16
11 124 11 319 l0 295 -25 24 -24 25 -391 0 -390 0 0 25 0 24 390 3 389 3 23
23 c22 21 23 31 23 153 0 125 -1 132 -24 150 -22 18 -44 19 -412 19 l-389 0 0
231 c0 201 2 230 15 225 8 -3 15 -1 15 4 0 15 -44 120 -51 120 -3 0 -14 -23
-25 -52 -10 -29 -20 -56 -22 -60 -2 -4 3 -8 12 -8 13 0 16 -13 16 -75 l0 -76
-567 3 c-521 3 -571 4 -600 21 -68 37 -68 32 -71 537 -2 250 0 479 3 509 5 41
14 61 40 90 l33 36 101 3 c87 3 101 2 101 -12 0 -20 -1 -21 66 9 31 14 58 25
60 25 2 0 4 -29 4 -65 0 -57 3 -69 25 -90 l24 -25 391 0 390 0 0 -25 0 -25
-389 0 c-378 0 -389 -1 -415 -21 l-26 -20 0 -314 0 -314 26 -20 c27 -21 33
-21 820 -21 436 0 800 3 809 6 40 16 45 50 45 342 0 169 -4 291 -10 309 -6 17
-22 35 -36 42 -17 7 -142 11 -404 11 l-380 0 0 25 0 25 380 0 c262 0 387 4
404 11 35 16 46 57 46 171 0 103 -13 149 -45 162 -9 3 -190 6 -401 6 l-384 0
0 70 0 70 403 0 c246 0 416 -4 439 -10z m-78 -176 c24 -9 24 -249 0 -258 -29
-11 -1554 -7 -1575 4 -17 10 -19 22 -19 123 0 75 4 117 12 125 9 9 198 12 789
12 428 0 784 -3 793 -6z m2501 -454 l0 -305 -789 -3 c-574 -1 -792 1 -802 9
-11 9 -14 69 -14 304 0 160 3 295 7 298 3 4 365 6 802 5 l796 -3 0 -305z
m-2497 48 c9 -9 12 -91 12 -309 0 -261 -2 -298 -16 -303 -9 -3 -365 -6 -793
-6 -591 0 -780 3 -789 12 -17 17 -17 589 0 606 17 17 1569 17 1586 0z m2490
-1020 c8 -8 12 -50 12 -123 0 -73 -4 -115 -12 -123 -17 -17 -1569 -17 -1586 0
-17 17 -17 229 0 246 17 17 1569 17 1586 0z m128 -183 c66 -29 68 -30 60 -10
-4 13 7 15 70 15 75 0 77 -1 115 -39 l39 -39 0 -718 c-1 -545 -4 -724 -13
-741 -7 -12 -25 -32 -42 -45 l-29 -23 -548 -3 -548 -3 0 96 0 95 235 0 c215 0
239 2 274 20 43 22 78 61 87 97 5 18 11 22 25 18 18 -6 18 -2 -5 59 l-25 66
90 0 c87 0 92 1 120 29 l29 29 0 427 c0 448 -2 472 -45 489 -9 3 -190 6 -401
6 l-384 0 0 30 0 30 384 0 385 0 26 23 c20 17 28 35 32 70 3 26 7 47 9 47 2 0
29 -11 60 -25z m-2611 -215 l0 -125 -800 0 -800 0 -3 114 c-2 75 1 118 9 127
10 12 135 14 803 12 l791 -3 0 -125z m2483 -8 c10 -7 12 -102 10 -443 l-3
-434 -800 0 -800 0 -3 429 c-1 308 1 433 9 442 10 12 145 14 793 14 429 0 787
-4 794 -8z m-4128 -58 c0 -30 4 -64 10 -74 19 -36 62 -40 446 -40 l374 0 0
-25 0 -25 -390 0 -391 0 -24 -25 -25 -24 0 -300 c0 -165 3 -307 6 -316 12 -30
60 -45 144 -45 44 0 80 -4 80 -9 0 -5 -9 -30 -20 -56 -23 -54 -25 -68 -7 -62
6 2 24 -17 39 -44 19 -33 40 -53 71 -68 40 -20 60 -21 280 -21 l237 0 0 -90 0
-90 -562 0 c-629 0 -611 -2 -653 70 -19 34 -20 53 -23 565 -2 292 0 555 3 585
6 45 13 61 45 92 l38 38 97 0 c82 0 96 -2 91 -15 -7 -20 3 -19 65 9 30 14 57
25 62 25 4 1 7 -24 7 -55z m1648 -216 c9 -9 12 -88 12 -294 0 -155 -3 -289 -6
-298 -6 -14 -86 -16 -804 -16 -718 0 -798 2 -804 16 -3 9 -6 143 -6 298 0 206
3 285 12 294 17 17 1579 17 1596 0z m-214 -719 c-19 -47 -22 -64 -13 -70 10
-6 8 -13 -5 -34 -32 -49 -64 -55 -316 -55 l-230 0 0 51 c0 41 3 50 15 45 8 -3
15 -4 15 -2 0 14 -44 116 -50 116 -4 0 -16 -21 -26 -47 -11 -27 -20 -51 -22
-55 -2 -5 3 -8 12 -8 13 0 16 -11 16 -50 l0 -50 -230 0 c-252 0 -284 6 -316
55 -13 20 -14 29 -5 34 12 8 11 14 -23 94 l-16 37 609 0 610 0 -25 -61z m1896
57 c0 -2 -9 -25 -20 -51 -24 -56 -25 -66 -5 -59 12 5 15 -4 15 -50 l0 -56
-235 0 c-256 0 -272 3 -314 56 -25 32 -27 46 -5 37 14 -5 14 -2 -1 33 -23 54
-35 85 -35 90 0 2 135 4 300 4 165 0 300 -2 300 -4z m610 -1 c0 -3 -11 -33
-25 -66 -18 -46 -21 -60 -10 -55 9 3 15 0 15 -8 0 -18 -64 -74 -93 -81 -12 -3
-123 -4 -247 -3 l-225 3 0 50 c0 43 3 50 19 47 10 -2 16 1 13 5 -3 5 -15 32
-26 61 l-21 52 300 0 c165 0 300 -2 300 -5z m-3669 -871 c131 -38 218 -204
159 -302 -23 -37 -54 -52 -109 -52 -50 0 -88 30 -101 81 -5 21 -15 57 -20 79
-19 73 -102 113 -179 87 -22 -8 -41 -12 -41 -9 0 17 57 75 93 94 78 40 121 45
198 22z m3827 -53 c82 -43 134 -124 136 -214 1 -55 -1 -60 -36 -93 -32 -28
-45 -34 -84 -34 -39 0 -51 5 -80 34 -24 24 -34 43 -34 65 0 46 -29 109 -60
131 -40 28 -99 35 -143 16 -20 -8 -37 -13 -37 -11 0 13 77 88 104 102 71 37
167 38 234 4z m-3953 -104 c25 -25 35 -46 40 -83 10 -65 32 -102 77 -125 45
-23 89 -24 128 -4 43 22 37 2 -13 -49 -155 -154 -427 -50 -429 164 0 58 13 85
55 110 51 31 103 26 142 -13z m739 19 c67 -28 93 -94 61 -156 -46 -88 -173
-71 -206 27 -15 45 12 101 61 125 42 22 42 22 84 4z m2531 -66 c24 -25 30 -39
30 -75 0 -37 -6 -50 -33 -77 -27 -28 -39 -33 -77 -32 -100 2 -145 112 -77 188
41 45 109 44 157 -4z m515 13 c23 -21 33 -40 37 -73 9 -68 37 -117 83 -140 47
-24 78 -25 125 -6 19 8 35 13 35 11 0 -15 -80 -90 -114 -108 -57 -29 -165 -29
-221 0 -86 46 -138 126 -139 216 -1 55 1 61 36 93 50 45 112 48 158 7z m205
-803 l0 -305 -794 -3 c-629 -2 -796 0 -803 10 -9 16 -11 592 -1 601 3 4 365 6
802 5 l796 -3 0 -305z"/>
<path d="M4676 9484 c-32 -31 -16 -59 44 -79 56 -19 68 -38 37 -60 -30 -21
-44 -19 -72 11 -24 26 -25 26 -25 6 0 -25 27 -42 65 -42 92 0 86 82 -8 104
-33 8 -44 30 -27 51 17 21 46 19 71 -6 26 -26 34 -20 13 9 -18 26 -75 30 -98
6z"/>
<path d="M4973 9493 c-7 -2 -13 -13 -13 -23 0 -10 -6 -21 -12 -24 -10 -5 -10
-7 0 -12 7 -3 12 -26 12 -60 0 -34 4 -53 10 -49 6 3 10 28 10 55 0 31 5 50 13
53 25 9 36 -8 39 -58 2 -38 7 -51 21 -53 9 -2 17 1 17 7 0 6 -7 11 -15 11 -22
0 -20 79 3 96 16 12 16 13 0 14 -9 0 -19 10 -21 23 l-4 22 -2 -22 c-1 -17 -7
-23 -26 -23 -16 0 -25 6 -25 15 0 8 5 15 10 15 6 0 10 5 10 10 0 11 -7 12 -27
3z"/>
<path d="M4826 9428 c-47 -66 34 -149 87 -90 21 23 22 76 1 96 -23 24 -70 20
-88 -6z m81 -14 c15 -24 15 -29 2 -53 -18 -32 -41 -38 -63 -16 -20 21 -21 59
0 79 22 23 41 20 61 -10z"/>
<path d="M5090 9388 c0 -32 4 -58 10 -58 6 0 10 20 10 44 0 46 19 72 45 62 11
-4 15 -21 15 -61 0 -35 4 -54 10 -50 6 3 10 28 10 55 0 40 4 50 20 55 32 10
40 -3 40 -61 0 -34 4 -53 10 -49 13 8 13 81 0 105 -8 16 -21 18 -90 17 l-80
-2 0 -57z"/>
<path d="M5300 9430 c-6 -11 -7 -20 -1 -20 5 0 11 7 15 15 7 20 45 19 53 0 7
-20 1 -26 -39 -34 -28 -6 -33 -11 -33 -36 0 -25 4 -30 28 -33 16 -2 35 2 43 9
10 8 14 8 14 0 0 -6 4 -11 9 -11 11 0 1 101 -11 118 -16 20 -66 15 -78 -8z
m70 -59 c0 -28 -28 -47 -48 -34 -25 15 -21 36 8 44 38 11 40 10 40 -10z"/>
<path d="M5416 9438 c4 -7 14 -21 22 -30 12 -15 12 -21 -8 -48 -28 -39 -20
-51 9 -14 l22 28 24 -29 c28 -35 33 -26 8 15 -15 27 -15 30 0 54 25 37 21 43
-9 15 l-26 -24 -15 23 c-16 23 -40 32 -27 10z"/>
<path d="M4780 8765 l0 -85 63 2 62 2 -52 3 -53 4 0 80 c0 46 -4 79 -10 79 -6
0 -10 -35 -10 -85z"/>
<path d="M4910 8840 c0 -5 5 -10 10 -10 6 0 10 5 10 10 0 6 -4 10 -10 10 -5 0
-10 -4 -10 -10z"/>
<path d="M4990 8801 c-8 -6 -18 -7 -22 -5 -4 3 -7 -23 -6 -58 l1 -63 6 49 c6
51 26 74 55 63 12 -5 16 -19 16 -57 0 -27 5 -50 10 -50 6 0 10 22 10 49 0 67
-30 97 -70 72z"/>
<path d="M5117 8799 c-43 -25 -41 -96 4 -119 27 -15 69 2 69 27 -1 17 -1 17
-14 1 -23 -30 -76 -17 -76 19 0 9 16 13 50 13 54 0 55 1 39 33 -20 37 -40 45
-72 26z m53 -13 c0 -2 3 -11 6 -20 5 -13 -2 -16 -35 -16 -42 0 -50 7 -29 28
11 11 58 17 58 8z"/>
<path d="M5238 8799 c-10 -5 -18 -15 -18 -21 0 -9 3 -9 12 0 20 20 58 15 58
-8 0 -14 -7 -20 -21 -20 -56 0 -80 -51 -34 -72 18 -8 28 -8 38 1 8 6 21 9 28
6 11 -4 13 6 11 47 -5 69 -31 92 -74 67z m62 -65 c0 -3 -5 -14 -10 -25 -14
-26 -60 -26 -60 0 0 11 6 22 13 24 17 7 57 8 57 1z"/>
<path d="M5347 8804 c-11 -11 -8 -112 3 -119 6 -4 10 12 10 39 0 35 5 49 20
58 26 16 26 32 1 18 -13 -7 -20 -7 -23 1 -2 6 -7 7 -11 3z"/>
<path d="M4910 8740 c0 -33 4 -60 10 -60 6 0 10 27 10 60 0 33 -4 60 -10 60
-6 0 -10 -27 -10 -60z"/>
<path d="M4485 8095 c-42 -99 -54 -135 -45 -135 5 0 12 11 16 25 6 26 8 27 49
27 43 0 45 -1 56 -29 6 -16 13 -23 16 -17 5 16 -52 157 -66 162 -6 2 -18 -13
-26 -33z m40 -21 c19 -46 20 -44 -15 -44 -16 0 -30 3 -30 7 0 9 23 73 27 73 1
0 10 -16 18 -36z"/>
<path d="M4689 8098 c-1 -18 -2 -50 -3 -72 -1 -45 -25 -68 -53 -50 -21 13 -27
36 -19 70 5 19 13 24 38 24 24 0 29 3 21 11 -19 19 -63 1 -74 -28 -21 -56 26
-117 71 -93 11 6 25 8 30 5 6 -4 10 26 10 79 0 51 -4 86 -10 86 -5 0 -11 -15
-11 -32z"/>
<path d="M4839 8125 c-1 -3 -3 -9 -4 -15 -1 -5 -3 -14 -4 -20 0 -5 -14 -7 -29
-4 -39 8 -62 -17 -62 -66 0 -49 35 -79 70 -60 11 6 25 8 30 5 6 -4 10 26 10
79 0 47 -2 86 -5 86 -3 0 -6 -2 -6 -5z m-11 -102 c3 -39 1 -43 -24 -49 -20 -5
-31 -2 -41 11 -29 41 -8 88 37 83 22 -3 25 -9 28 -45z"/>
<path d="M4966 8115 c-3 -9 -1 -26 5 -37 9 -16 6 -24 -12 -44 -19 -20 -21 -28
-11 -48 13 -29 43 -38 76 -21 15 8 28 10 31 4 4 -5 11 -9 18 -9 8 0 8 3 -1 12
-7 7 -12 23 -12 38 0 16 -3 21 -8 12 -7 -9 -13 -8 -27 8 -17 19 -17 21 -1 39
26 29 17 55 -20 59 -22 2 -33 -2 -38 -13z m57 -7 c6 -19 -3 -38 -18 -38 -18 0
-28 17 -21 35 7 18 33 20 39 3z m-8 -88 c30 -33 5 -61 -39 -44 -19 7 -21 35
-4 52 16 16 22 15 43 -8z"/>
<path d="M5172 8043 c2 -83 2 -84 5 -20 2 37 7 67 12 67 4 0 28 -29 52 -65 24
-36 47 -65 51 -65 5 0 7 39 6 88 l-2 87 -5 -74 -6 -74 -48 71 c-26 40 -52 72
-57 72 -6 0 -9 -35 -8 -87z"/>
<path d="M5351 8064 c-28 -35 -26 -59 4 -90 42 -41 95 -12 95 51 0 62 -62 86
-99 39z m80 -20 c7 -20 6 -32 -6 -50 -27 -42 -75 -25 -75 26 0 53 62 72 81 24z"/>
<path d="M5477 8084 c-11 -11 -8 -124 3 -124 6 0 10 20 10 44 0 35 5 48 22 60
12 9 19 19 15 22 -4 4 -13 2 -21 -5 -10 -8 -15 -9 -18 -1 -2 6 -7 8 -11 4z"/>
<path d="M5573 8083 c-21 -4 -23 -10 -23 -64 0 -73 18 -79 22 -6 3 48 5 52 28
52 23 0 25 -4 28 -52 2 -29 7 -53 12 -53 5 0 10 24 12 53 3 48 5 52 28 52 23
0 25 -4 28 -52 4 -61 22 -72 22 -14 0 59 -15 91 -43 91 -13 0 -28 -5 -34 -11
-8 -8 -13 -8 -17 0 -7 11 -22 12 -63 4z"/>
<path d="M4840 7620 c0 -53 4 -90 10 -90 6 0 10 18 10 40 l0 40 40 0 c22 0 40
5 40 10 0 6 -18 10 -40 10 -38 0 -40 2 -40 30 0 29 2 30 45 30 25 0 45 5 45
10 0 6 -25 10 -55 10 l-55 0 0 -90z"/>
<path d="M5320 7675 c0 -30 -3 -36 -12 -27 -33 33 -88 -2 -88 -54 0 -49 19
-66 71 -62 l44 4 3 78 c2 46 -2 84 -8 90 -7 7 -10 -2 -10 -29z m-7 -56 c13
-21 1 -68 -20 -76 -35 -13 -67 34 -52 75 7 18 15 23 35 20 15 -2 31 -10 37
-19z"/>
<path d="M4986 7645 c-39 -39 -23 -107 27 -113 29 -3 57 12 57 31 0 5 -8 3
-18 -6 -25 -22 -49 -21 -62 2 -15 30 -14 31 41 31 48 0 50 1 43 23 -3 12 -11
28 -16 35 -14 17 -53 15 -72 -3z m69 -25 c0 -16 -36 -25 -61 -16 -8 3 -11 12
-8 21 9 21 69 17 69 -5z"/>
<path d="M5107 7642 c-19 -21 -22 -64 -7 -93 15 -27 75 -26 90 1 6 11 7 20 1
20 -5 0 -12 -7 -15 -16 -8 -22 -45 -14 -64 14 -14 22 -14 22 37 22 43 0 51 3
51 18 0 24 -31 52 -57 52 -11 0 -27 -8 -36 -18z m71 -24 c3 -15 -4 -18 -32
-18 -34 0 -47 15 -29 34 13 13 58 1 61 -16z"/>
<path d="M4670 7325 c0 -50 4 -85 10 -85 6 0 10 18 10 39 0 40 0 40 43 44 l42
4 -42 1 c-42 2 -43 3 -43 36 0 34 1 35 48 39 46 3 46 3 -10 5 l-58 2 0 -85z"/>
<path d="M5490 7382 c0 -26 -2 -28 -37 -24 -27 3 -40 0 -50 -14 -32 -44 4
-124 50 -109 12 4 30 7 40 6 15 0 17 11 17 85 0 49 -4 84 -10 84 -5 0 -10 -13
-10 -28z m-12 -44 c17 -17 15 -63 -2 -78 -8 -6 -25 -10 -38 -8 -18 2 -24 10
-26 36 -5 52 34 82 66 50z"/>
<path d="M4829 7356 c-37 -18 -47 -60 -22 -94 25 -33 47 -38 78 -18 18 12 25
25 25 49 0 56 -38 85 -81 63z m63 -31 c8 -19 8 -31 0 -50 -19 -42 -82 -28 -82
18 0 56 60 80 82 32z"/>
<path d="M5223 7359 c-23 -9 -38 -27 -29 -36 3 -4 12 1 19 11 16 22 50 18 55
-7 3 -12 -3 -17 -22 -17 -31 0 -68 -34 -60 -55 8 -20 51 -30 68 -16 7 6 20 9
28 6 11 -4 13 3 11 32 -8 83 -22 100 -70 82z m45 -81 c-2 -18 -10 -23 -32 -23
-37 0 -46 22 -14 34 38 16 50 13 46 -11z"/>
<path d="M4930 7298 c0 -32 4 -58 10 -58 6 0 10 20 10 44 0 34 5 48 21 60 21
14 21 15 -10 14 l-31 -1 0 -59z"/>
<path d="M5006 7338 c34 -110 48 -121 65 -53 13 51 19 50 34 -3 6 -19 15 -37
22 -39 12 -4 47 90 40 110 -2 6 -10 -6 -17 -28 -19 -59 -26 -61 -40 -10 -15
52 -30 54 -43 4 -13 -53 -23 -54 -37 -5 -7 26 -17 46 -22 46 -5 0 -6 -10 -2
-22z"/>
<path d="M5320 7298 c0 -32 4 -58 10 -58 6 0 10 20 10 44 0 34 5 48 21 60 21
14 21 15 -10 14 l-31 -1 0 -59z"/>
<path d="M4491 6668 c-5 -13 -20 -52 -35 -87 -30 -73 -29 -71 -17 -71 5 0 14
14 20 30 9 27 15 30 50 30 35 0 40 -3 51 -32 7 -18 14 -28 17 -21 5 15 -57
173 -69 173 -5 0 -12 -10 -17 -22z m35 -43 c19 -45 19 -45 -16 -45 -16 0 -30
4 -30 9 0 13 21 71 26 71 3 0 12 -16 20 -35z"/>
<path d="M4697 6683 c-4 -3 -7 -17 -7 -29 0 -20 -4 -22 -34 -17 -27 4 -36 1
-50 -18 -20 -29 -20 -58 0 -87 12 -18 23 -22 60 -20 l44 3 0 88 c0 87 -1 93
-13 80z m-19 -65 c17 -17 15 -73 -3 -88 -12 -10 -21 -10 -40 -2 -43 20 -30
102 15 102 9 0 21 -5 28 -12z"/>
<path d="M4839 6685 c-1 -3 -3 -9 -4 -15 -1 -5 -3 -16 -4 -23 -1 -9 -11 -12
-31 -9 -42 6 -60 -13 -60 -63 0 -52 15 -66 69 -63 l41 3 0 88 c0 48 -2 87 -5
87 -3 0 -6 -2 -6 -5z m-21 -67 c27 -27 9 -98 -24 -98 -20 0 -44 30 -44 55 0
42 42 69 68 43z"/>
<path d="M4976 6674 c-19 -18 -19 -20 -6 -44 8 -15 6 -24 -10 -40 -24 -24 -25
-43 -4 -64 18 -18 47 -21 74 -6 13 7 21 7 25 0 12 -19 26 -11 15 9 -5 11 -10
30 -10 43 0 18 -2 20 -10 8 -8 -13 -11 -12 -24 5 -13 17 -13 22 0 36 17 19 18
41 2 57 -16 16 -33 15 -52 -4z m50 -15 c3 -6 -1 -18 -10 -27 -15 -15 -18 -15
-26 -2 -5 8 -10 21 -10 28 0 15 36 16 46 1z m4 -116 c0 -17 -39 -26 -55 -13
-20 17 -19 47 3 59 13 8 21 5 34 -12 10 -12 18 -27 18 -34z"/>
<path d="M5172 6598 l2 -93 5 75 6 75 35 -49 c19 -27 45 -61 57 -75 l22 -26
-1 95 -2 95 -5 -75 -6 -75 -50 72 c-27 40 -53 73 -57 73 -5 0 -7 -42 -6 -92z"/>
<path d="M5349 6624 c-7 -9 -13 -31 -13 -49 0 -42 19 -65 54 -65 53 0 82 77
42 113 -23 21 -66 22 -83 1z m78 -20 c15 -24 15 -29 2 -53 -18 -32 -41 -38
-63 -16 -20 21 -21 59 0 79 22 23 41 20 61 -10z"/>
<path d="M5470 6579 c0 -32 5 -61 10 -64 6 -4 10 13 10 43 0 40 4 52 22 64 21
14 21 15 -10 15 l-32 0 0 -58z"/>
<path d="M5550 6578 c0 -32 4 -58 10 -58 6 0 10 20 10 44 0 46 19 72 45 62 11
-4 15 -21 15 -61 0 -35 4 -54 10 -50 6 3 10 28 10 55 0 40 4 50 20 55 32 10
40 -3 40 -61 0 -34 4 -53 10 -49 13 8 13 66 0 99 -10 27 -52 37 -65 16 -5 -8
-11 -8 -20 0 -7 5 -29 9 -49 8 l-36 -3 0 -57z"/>
<path d="M2016 6423 c-17 -18 -78 -173 -67 -173 5 0 14 14 21 30 10 25 18 30
46 30 28 0 38 -6 54 -32 29 -47 25 -19 -11 72 -32 85 -32 84 -43 73z m23 -64
c6 -18 11 -34 11 -35 0 -2 -13 -4 -30 -4 -16 0 -30 2 -30 4 0 14 24 66 30 66
4 0 13 -14 19 -31z"/>
<path d="M2350 6393 c0 -29 -3 -34 -12 -25 -32 32 -88 -1 -88 -52 0 -51 16
-67 66 -64 l44 3 0 88 c0 48 -2 87 -5 87 -3 0 -5 -17 -5 -37z m-10 -52 c14
-27 13 -47 -6 -65 -39 -39 -90 6 -66 59 14 31 56 34 72 6z"/>
<path d="M2495 6416 c-13 -9 -16 -21 -12 -42 3 -19 -1 -36 -13 -52 -27 -33
-13 -66 29 -70 18 -2 38 2 46 8 9 8 15 8 20 0 12 -20 26 -10 15 11 -7 11 -9
27 -6 35 3 8 1 14 -4 14 -6 0 -10 -6 -10 -12 -1 -7 -10 -2 -21 11 -18 21 -18
26 -4 41 20 22 19 47 -4 59 -13 7 -23 6 -36 -3z m39 -15 c9 -14 -4 -41 -19
-41 -15 0 -28 27 -19 41 3 5 11 9 19 9 8 0 16 -4 19 -9z m-5 -94 c19 -21 20
-26 7 -36 -32 -27 -83 12 -57 43 18 21 24 20 50 -7z"/>
<path d="M2680 6338 c0 -103 17 -112 22 -13 l3 60 45 -67 c25 -37 51 -68 58
-68 15 0 17 166 2 175 -6 4 -10 -20 -10 -65 0 -39 -4 -69 -9 -66 -4 3 -26 32
-47 65 -58 89 -64 87 -64 -21z"/>
<path d="M2200 6395 c0 -21 -3 -24 -27 -19 -40 8 -65 -15 -66 -58 -1 -52 17
-69 69 -66 l44 3 0 83 c0 48 -4 82 -10 82 -5 0 -10 -11 -10 -25z m-5 -79 c0
-67 -65 -78 -73 -12 -4 36 15 58 47 54 23 -3 26 -8 26 -42z"/>
<path d="M2860 6353 c-36 -46 -11 -103 44 -103 42 0 56 16 56 60 0 67 -60 93
-100 43z m80 -12 c5 -11 10 -26 10 -35 0 -18 -27 -46 -45 -46 -36 0 -59 62
-33 88 18 18 56 14 68 -7z"/>
<path d="M2993 6315 c0 -52 2 -58 4 -23 3 35 10 52 25 63 12 8 19 18 15 21 -4
4 -13 2 -21 -5 -11 -9 -15 -9 -19 1 -3 7 -5 -18 -4 -57z"/>
<path d="M3083 6373 c-21 -4 -23 -10 -23 -64 0 -73 18 -79 22 -6 3 48 5 52 31
55 27 3 27 2 27 -52 0 -71 18 -74 22 -3 3 48 5 52 31 55 27 3 27 2 27 -52 0
-31 5 -56 10 -56 15 0 12 94 -4 116 -13 17 -18 18 -45 7 -18 -6 -33 -7 -37 -2
-5 9 -21 10 -61 2z"/>
<path d="M4532 6168 c2 -82 2 -85 5 -25 2 37 7 67 11 67 4 0 18 -29 31 -65 18
-52 26 -63 36 -55 7 6 16 21 19 33 3 13 13 41 23 63 l18 39 6 -75 5 -75 2 93
c2 113 -11 118 -48 19 -13 -37 -27 -67 -31 -67 -4 0 -18 30 -32 67 -36 98 -47
93 -45 -19z"/>
<path d="M4864 6170 c0 -52 1 -74 3 -47 2 26 2 68 0 95 -2 26 -3 4 -3 -48z"/>
<path d="M5110 6175 c0 -50 4 -85 10 -85 6 0 10 18 10 40 l0 40 50 0 50 0 0
-40 c0 -22 5 -40 10 -40 6 0 10 35 10 85 0 50 -4 85 -10 85 -5 0 -10 -18 -10
-40 l0 -40 -50 0 -50 0 0 40 c0 22 -4 40 -10 40 -6 0 -10 -35 -10 -85z"/>
<path d="M5630 6232 c0 -26 -3 -28 -34 -24 -26 3 -37 -1 -50 -19 -21 -31 -20
-61 2 -89 16 -19 24 -21 60 -15 l42 7 0 84 c0 49 -4 84 -10 84 -5 0 -10 -13
-10 -28z m-12 -44 c20 -20 15 -76 -7 -88 -25 -13 -27 -13 -45 6 -31 30 -15 94
24 94 9 0 21 -5 28 -12z"/>
<path d="M4910 6230 c0 -11 -5 -20 -12 -20 -9 0 -9 -3 0 -12 7 -7 12 -33 12
-59 0 -34 4 -49 16 -53 9 -4 20 -3 23 0 3 4 0 9 -6 11 -17 6 -17 85 -1 101 9
9 9 12 0 12 -7 0 -12 9 -12 20 0 11 -4 20 -10 20 -5 0 -10 -9 -10 -20z"/>
<path d="M4732 6159 c-2 -66 8 -79 61 -76 l37 2 0 63 c0 35 -4 62 -10 62 -5 0
-10 -22 -10 -50 0 -38 -4 -52 -19 -59 -30 -16 -50 7 -54 64 l-3 50 -2 -56z"/>
<path d="M4983 6150 c0 -36 2 -50 4 -32 2 17 2 47 0 65 -2 17 -4 3 -4 -33z"/>
<path d="M5290 6191 c-38 -71 34 -148 85 -91 22 24 13 26 -20 4 -22 -14 -25
-14 -47 8 l-23 23 53 3 c43 3 52 6 52 22 0 46 -78 70 -100 31z m68 -3 c20 -20
14 -28 -23 -28 -19 0 -35 4 -35 8 0 12 22 32 35 32 6 0 16 -5 23 -12z"/>
<path d="M5422 6198 c-20 -20 -14 -33 7 -14 23 21 54 18 59 -5 2 -10 -9 -18
-34 -25 -45 -11 -64 -35 -45 -58 15 -18 56 -21 66 -6 5 8 11 8 20 0 9 -8 15
-8 20 0 3 5 2 10 -4 10 -5 0 -11 24 -13 53 -3 50 -4 52 -33 55 -17 2 -36 -3
-43 -10z m68 -60 c0 -28 -21 -43 -57 -39 -22 2 -14 31 10 41 32 13 47 12 47
-2z"/>
<path d="M5025 6150 c3 -5 17 -10 31 -10 13 0 24 5 24 10 0 6 -14 10 -31 10
-17 0 -28 -4 -24 -10z"/>
<path d="M4650 5880 c-18 -45 -30 -83 -27 -87 4 -3 12 6 18 21 10 22 19 26 55
26 36 0 43 -3 48 -25 4 -14 11 -25 17 -25 6 0 9 4 7 8 -1 5 -16 43 -33 85 -16
42 -35 77 -41 77 -7 0 -26 -36 -44 -80z m70 -11 c0 -5 -13 -9 -30 -9 -35 0
-34 -3 -14 46 l16 38 14 -33 c8 -18 14 -37 14 -42z"/>
<path d="M4801 5944 c0 -12 -9 -25 -18 -29 -17 -6 -17 -7 0 -16 12 -7 17 -23
17 -59 0 -45 2 -50 23 -50 20 1 20 2 5 11 -13 7 -18 23 -18 54 0 41 2 45 25
45 22 0 25 -4 25 -39 0 -50 8 -71 28 -71 12 0 13 3 4 12 -16 16 -16 95 1 101
9 4 9 8 1 14 -7 4 -14 17 -16 28 -4 18 -6 17 -16 -7 -6 -16 -15 -28 -19 -28
-16 0 -31 15 -36 35 -4 19 -5 19 -6 -1z"/>
<path d="M5201 5943 c0 -12 -7 -24 -13 -27 -10 -5 -10 -7 0 -12 7 -3 12 -26
12 -60 0 -49 2 -54 23 -54 20 1 20 2 5 11 -13 7 -18 23 -18 54 0 36 4 45 18
45 16 1 16 2 1 13 -9 7 -19 21 -22 32 -4 18 -5 18 -6 -2z"/>
<path d="M5260 5950 c0 -5 5 -10 10 -10 6 0 10 5 10 10 0 6 -4 10 -10 10 -5 0
-10 -4 -10 -10z"/>
<path d="M4948 5910 c-22 -13 -32 -63 -18 -89 18 -35 48 -45 76 -26 13 8 24
21 24 27 0 6 -8 4 -18 -5 -22 -20 -43 -22 -60 -5 -25 25 -13 38 33 38 41 0 45
2 45 25 0 37 -45 56 -82 35z m61 -23 c14 -18 4 -27 -29 -27 -15 0 -30 3 -33 7
-10 10 13 33 33 33 10 0 23 -6 29 -13z"/>
<path d="M5083 5913 c-21 -4 -23 -10 -22 -66 2 -60 2 -61 8 -17 8 58 17 70 47
70 23 0 24 -3 24 -55 0 -30 5 -55 10 -55 14 0 12 104 -2 118 -12 12 -24 13
-65 5z"/>
<path d="M5320 5900 c-48 -48 5 -139 63 -109 29 16 37 28 37 62 0 32 -31 67
-60 67 -11 0 -29 -9 -40 -20z m75 -44 c0 -67 -65 -78 -73 -12 -4 36 15 58 47
54 23 -3 26 -8 26 -42z"/>
<path d="M5463 5913 c-21 -4 -23 -10 -23 -64 0 -73 18 -79 22 -6 3 48 5 52 30
55 29 3 34 -5 41 -78 3 -23 4 -16 5 21 3 74 -9 85 -75 72z"/>
<path d="M5260 5850 c0 -33 4 -60 10 -60 6 0 10 27 10 60 0 33 -4 60 -10 60
-6 0 -10 -27 -10 -60z"/>
<path d="M2350 5925 c0 -50 4 -85 10 -85 6 0 10 18 10 39 0 40 0 40 43 44 l42
4 -42 1 c-42 2 -43 3 -43 36 0 34 1 35 48 39 46 3 46 3 -10 5 l-58 2 0 -85z"/>
<path d="M2830 5982 c0 -26 -2 -28 -36 -24 -26 3 -39 -1 -49 -14 -31 -42 -6
-114 40 -114 13 0 26 4 30 10 3 5 12 7 20 3 13 -4 15 9 15 81 0 51 -4 86 -10
86 -5 0 -10 -13 -10 -28z m-12 -44 c14 -14 16 -57 3 -76 -5 -8 -21 -12 -37
-10 -25 3 -29 8 -32 36 -5 52 34 82 66 50z"/>
<path d="M2486 5938 c-9 -12 -16 -33 -16 -45 0 -28 33 -63 59 -63 22 0 51 25
51 43 0 7 -7 4 -14 -5 -16 -22 -62 -23 -70 -2 -9 24 -9 24 39 24 40 0 45 2 45
23 0 13 -5 28 -12 35 -20 20 -65 14 -82 -10z m72 0 c21 -21 13 -28 -28 -28
-22 0 -40 4 -40 8 0 14 23 32 40 32 9 0 21 -5 28 -12z"/>
<path d="M2612 5935 c-16 -35 -15 -56 4 -83 18 -26 56 -29 78 -6 23 22 20 40
-3 20 -24 -21 -65 -17 -69 7 -3 14 4 17 42 17 41 0 46 2 46 23 0 32 -18 47
-55 47 -24 0 -35 -6 -43 -25z m78 -5 c10 -18 8 -20 -30 -20 -41 0 -49 7 -28
28 18 18 46 14 58 -8z"/>
<path d="M2180 5629 c0 -57 4 -88 10 -84 6 3 10 24 10 45 0 38 0 39 43 43 l42
4 -42 1 c-42 2 -43 3 -43 36 0 34 1 35 48 39 46 3 46 3 -10 5 l-58 2 0 -91z"/>
<path d="M3000 5691 c0 -28 -2 -29 -35 -24 -46 7 -65 -10 -65 -57 0 -51 30
-78 70 -63 21 8 30 8 34 -1 2 -6 5 31 5 82 1 50 -1 92 -4 92 -3 0 -5 -13 -5
-29z m-16 -47 c9 -8 16 -22 16 -30 0 -53 -61 -75 -82 -29 -24 53 27 98 66 59z"/>
<path d="M2321 5656 c-19 -22 -16 -74 4 -96 23 -25 57 -26 78 -2 20 22 22 83
5 100 -17 17 -73 15 -87 -2z m73 -12 c19 -18 21 -55 4 -72 -29 -29 -78 -3 -78
42 0 18 27 46 45 46 7 0 21 -7 29 -16z"/>
<path d="M2451 5606 l2 -61 6 48 c7 45 21 66 47 67 6 0 18 -25 28 -55 9 -30
21 -57 25 -59 5 -3 14 15 21 39 7 25 16 45 20 45 5 0 12 -17 17 -37 13 -55 29
-50 51 17 11 33 17 60 11 60 -5 0 -14 -20 -20 -45 -6 -25 -15 -45 -19 -45 -4
0 -13 20 -19 45 -6 25 -16 45 -21 45 -5 0 -15 -20 -21 -45 -6 -25 -15 -45 -19
-45 -4 0 -13 20 -19 45 -11 45 -12 46 -51 43 l-40 -2 1 -60z"/>
<path d="M2710 5650 c-6 -11 -7 -20 -1 -20 5 0 12 7 15 16 8 20 50 15 54 -7 2
-12 -8 -19 -35 -26 -31 -7 -39 -14 -41 -35 -3 -22 2 -29 21 -34 14 -3 34 -1
45 5 13 7 22 7 30 -1 10 -10 8 40 -4 100 -6 30 -68 32 -84 2z m68 -62 c-2 -18
-10 -23 -32 -23 -37 0 -46 22 -14 34 38 16 50 13 46 -11z"/>
<path d="M2830 5608 c0 -32 4 -58 10 -58 6 0 10 20 10 44 0 34 5 48 21 60 21
14 21 15 -10 14 l-31 -1 0 -59z"/>
<path d="M4496 4992 c-15 -25 -63 -162 -57 -162 4 0 13 11 19 25 9 20 19 25
50 25 33 0 41 -4 52 -27 26 -56 19 -6 -9 67 -28 72 -43 91 -55 72z m31 -57
c11 -34 11 -35 -18 -35 -32 0 -35 7 -17 45 15 34 23 32 35 -10z"/>
<path d="M4690 4970 c0 -28 -2 -30 -21 -20 -16 9 -26 8 -45 -4 -29 -20 -39
-53 -25 -89 11 -29 55 -47 73 -29 6 6 17 8 24 5 11 -4 14 12 14 81 0 51 -4 86
-10 86 -5 0 -10 -14 -10 -30z m-12 -42 c13 -13 16 -47 6 -72 -7 -19 -45 -21
-62 -4 -27 27 -8 88 28 88 9 0 21 -5 28 -12z"/>
<path d="M4839 4995 c-1 -3 -3 -9 -4 -15 -1 -5 -3 -17 -4 -25 -1 -13 -5 -14
-22 -5 -34 19 -69 -11 -69 -60 0 -49 23 -74 59 -65 14 3 32 6 39 7 8 1 12 25
12 85 0 46 -2 83 -5 83 -3 0 -6 -2 -6 -5z m-21 -64 c8 -5 12 -23 10 -47 -2
-32 -7 -40 -26 -42 -31 -5 -52 15 -52 47 0 43 34 64 68 42z"/>
<path d="M4971 4986 c-10 -11 -10 -20 -1 -36 10 -18 8 -26 -10 -45 -40 -42 8
-103 59 -75 12 6 32 8 44 4 18 -5 20 -4 10 7 -7 7 -13 24 -13 39 0 16 -3 21
-8 12 -7 -9 -13 -8 -26 7 -17 19 -17 21 -2 37 25 24 17 58 -15 62 -14 2 -31
-4 -38 -12z m48 -9 c8 -10 7 -18 -2 -31 -12 -16 -14 -16 -26 -2 -14 16 -9 46
7 46 5 0 15 -6 21 -13z m-4 -87 c24 -27 13 -52 -22 -48 -31 3 -42 30 -23 53
16 20 23 19 45 -5z"/>
<path d="M5172 4913 c2 -83 2 -84 5 -20 2 37 7 67 11 67 4 0 27 -29 51 -65 24
-36 48 -65 53 -65 4 0 7 39 6 88 l-2 87 -5 -74 -6 -74 -49 72 c-27 39 -53 71
-58 71 -4 0 -7 -39 -6 -87z"/>
<path d="M5367 4949 c-28 -16 -40 -58 -26 -91 25 -61 109 -40 109 27 0 22 -8
43 -20 55 -22 22 -37 24 -63 9z m63 -34 c14 -36 -3 -75 -33 -75 -30 0 -47 18
-47 50 0 52 62 72 80 25z"/>
<path d="M5511 4950 c-8 -4 -20 -6 -28 -3 -10 4 -13 -9 -13 -56 0 -34 4 -61
10 -61 6 0 10 20 10 44 0 35 5 48 22 60 23 16 22 31 -1 16z"/>
<path d="M5591 4951 c-8 -5 -20 -7 -28 -4 -10 4 -13 -9 -13 -56 0 -75 18 -81
22 -8 3 48 5 52 28 52 23 0 25 -4 28 -52 2 -29 7 -53 12 -53 5 0 10 24 12 53
3 48 5 52 28 52 23 0 25 -4 28 -52 4 -64 22 -71 22 -9 0 28 -7 52 -19 67 -17
21 -22 22 -41 11 -14 -9 -26 -10 -40 -2 -22 12 -21 12 -39 1z"/>
<path d="M2001 4698 c-5 -13 -21 -51 -35 -85 -13 -35 -21 -63 -16 -63 4 0 13
14 20 30 10 25 18 30 47 30 27 0 37 -6 51 -30 31 -55 31 -31 -1 52 -34 87 -51
104 -66 66z m38 -39 c6 -18 11 -34 11 -35 0 -2 -13 -4 -30 -4 -16 0 -30 2 -30
4 0 14 24 66 30 66 4 0 13 -14 19 -31z"/>
<path d="M2200 4694 c0 -21 -4 -24 -20 -19 -32 10 -57 -3 -69 -36 -19 -56 25
-113 69 -89 11 6 25 8 30 5 6 -4 10 26 10 79 0 51 -4 86 -10 86 -5 0 -10 -12
-10 -26z m-5 -78 c0 -67 -65 -78 -73 -12 -4 36 15 58 47 54 23 -3 26 -8 26
-42z"/>
<path d="M2350 4691 c0 -28 -1 -29 -29 -18 -42 15 -71 -11 -71 -64 0 -48 35
-78 70 -59 11 6 25 8 30 5 6 -4 10 26 10 79 0 47 -2 86 -5 86 -3 0 -5 -13 -5
-29z m-10 -52 c23 -43 -8 -87 -51 -74 -44 14 -30 95 16 95 14 0 29 -9 35 -21z"/>
<path d="M2484 4706 c-4 -9 -4 -26 -1 -38 4 -13 -1 -30 -13 -45 -37 -47 15
-101 66 -68 14 9 25 11 29 5 12 -20 26 -10 15 11 -7 11 -9 27 -6 35 3 8 1 14
-4 14 -6 0 -10 -6 -10 -12 -1 -7 -9 -2 -20 10 -18 21 -18 25 -4 39 24 24 14
57 -19 61 -18 2 -29 -2 -33 -12z m50 -5 c9 -14 -4 -41 -19 -41 -15 0 -28 27
-19 41 3 5 11 9 19 9 8 0 16 -4 19 -9z m-2 -95 c15 -21 15 -26 3 -36 -31 -26
-81 13 -56 44 18 22 33 20 53 -8z"/>
<path d="M2680 4633 c0 -99 17 -105 22 -8 l3 60 45 -67 c25 -37 51 -68 58 -68
9 0 12 24 12 85 0 101 -18 115 -22 18 l-3 -68 -48 68 c-26 37 -52 67 -58 67
-5 0 -9 -39 -9 -87z"/>
<path d="M2860 4653 c-50 -63 25 -140 88 -91 6 6 12 27 12 48 0 67 -60 93
-100 43z m80 -12 c5 -11 10 -26 10 -35 0 -18 -27 -46 -45 -46 -36 0 -59 62
-33 88 18 18 56 14 68 -7z"/>
<path d="M2993 4615 c0 -52 2 -58 4 -23 3 35 10 52 25 63 12 8 19 18 15 21 -4
4 -13 2 -21 -5 -11 -9 -15 -9 -19 1 -3 7 -5 -18 -4 -57z"/>
<path d="M3083 4673 c-21 -4 -23 -10 -23 -64 0 -73 18 -79 22 -6 3 48 5 52 31
55 27 3 27 2 27 -52 0 -71 18 -74 22 -3 3 48 5 52 31 55 27 3 27 2 27 -52 0
-31 5 -56 10 -56 15 0 12 94 -4 116 -13 17 -18 18 -45 7 -18 -6 -33 -7 -37 -2
-5 9 -21 10 -61 2z"/>
<path d="M4692 4498 c2 -82 2 -85 5 -25 2 37 7 67 11 67 4 0 18 -29 30 -65 25
-69 36 -79 48 -42 4 12 16 42 28 67 l20 45 6 -70 6 -70 2 93 c1 50 -2 92 -7
92 -5 0 -22 -31 -37 -70 -15 -38 -30 -70 -34 -70 -4 0 -18 30 -32 67 -36 99
-48 94 -46 -19z"/>
<path d="M5133 4500 c0 -52 2 -83 4 -68 7 48 27 52 58 12 15 -19 29 -33 32
-30 3 3 -7 22 -22 42 l-27 36 21 14 c12 8 21 20 21 25 0 6 -18 -3 -39 -21
l-40 -31 -4 58 c-2 34 -3 19 -4 -37z"/>
<path d="M5480 4561 c0 -28 -2 -29 -33 -24 -44 7 -67 -16 -67 -66 0 -48 17
-62 69 -59 l41 3 0 88 c0 48 -2 87 -5 87 -3 0 -5 -13 -5 -29z m-12 -64 c12
-24 11 -31 -2 -53 -19 -28 -38 -31 -60 -8 -21 20 -20 53 1 76 22 25 45 19 61
-15z"/>
<path d="M4890 4520 c-13 -24 -5 -26 17 -5 19 20 47 15 51 -8 4 -17 -2 -21
-51 -32 -24 -5 -28 -10 -25 -33 3 -25 6 -27 54 -28 l51 -1 -5 51 c-2 28 -9 57
-14 64 -16 20 -66 15 -78 -8z m56 -89 c-13 -12 -20 -13 -34 -5 -26 17 -20 38
13 44 35 6 46 -13 21 -39z"/>
<path d="M5019 4524 c-18 -22 -1 -46 39 -56 36 -10 42 -33 11 -43 -13 -4 -27
0 -40 11 -16 15 -19 15 -19 2 0 -30 69 -39 91 -12 18 22 1 46 -39 56 -18 5
-32 15 -32 24 0 23 29 28 50 9 21 -19 28 -7 8 13 -17 17 -53 15 -69 -4z"/>
<path d="M5266 4524 c-19 -18 -21 -85 -4 -102 24 -24 88 -9 88 22 0 5 -8 2
-18 -7 -23 -21 -36 -21 -56 -1 -26 26 -18 34 34 34 54 0 61 10 34 48 -18 26
-56 29 -78 6z m55 -4 c31 -17 22 -30 -23 -30 -40 0 -41 0 -23 20 21 23 20 23
46 10z"/>
<path d="M4532 4203 l2 -88 6 70 c6 74 6 74 40 -15 10 -24 22 -46 27 -47 6 -2
18 15 28 39 40 100 39 99 45 23 l6 -70 2 88 c2 94 -9 111 -34 52 -7 -19 -21
-52 -30 -72 l-16 -38 -27 69 c-38 100 -51 97 -49 -11z"/>
<path d="M4864 4205 c0 -49 1 -71 3 -48 2 23 2 64 0 90 -2 26 -3 8 -3 -42z"/>
<path d="M5110 4205 c0 -50 4 -85 10 -85 6 0 10 18 10 40 l0 40 50 0 50 0 0
-40 c0 -22 5 -40 10 -40 6 0 10 35 10 85 0 50 -4 85 -10 85 -5 0 -10 -18 -10
-40 l0 -40 -50 0 -50 0 0 40 c0 22 -4 40 -10 40 -6 0 -10 -35 -10 -85z"/>
<path d="M5630 4260 c0 -28 -1 -29 -26 -18 -24 11 -29 9 -50 -15 -13 -16 -24
-39 -24 -53 0 -34 36 -68 63 -59 12 4 30 7 40 6 15 0 17 11 17 85 0 49 -4 84
-10 84 -5 0 -10 -13 -10 -30z m-11 -44 c31 -37 -9 -103 -46 -80 -37 23 -24 94
17 94 10 0 23 -6 29 -14z"/>
<path d="M4910 4260 c0 -11 -6 -20 -12 -20 -10 0 -10 -2 -1 -8 6 -4 13 -30 15
-57 2 -41 7 -50 23 -52 11 -2 14 0 8 3 -8 3 -13 25 -13 54 0 29 5 50 13 53 10
4 10 6 0 6 -7 1 -13 10 -13 21 0 11 -4 20 -10 20 -5 0 -10 -9 -10 -20z"/>
<path d="M5302 4234 c-16 -11 -22 -25 -22 -54 0 -38 25 -70 56 -70 18 0 60 37
51 46 -4 4 -13 0 -20 -10 -19 -25 -61 -18 -65 12 -3 20 1 22 42 22 52 0 60 16
26 50 -24 24 -38 25 -68 4z m66 -26 c3 -15 -4 -18 -32 -18 -34 0 -47 15 -29
34 13 13 58 1 61 -16z"/>
<path d="M5428 4239 c-10 -5 -18 -18 -18 -27 1 -15 2 -15 15 1 16 22 58 19 63
-4 2 -12 -8 -18 -37 -23 -29 -4 -42 -12 -47 -28 -8 -27 22 -52 51 -43 11 4 31
6 45 6 19 -1 21 2 12 11 -7 7 -12 31 -12 55 0 32 -5 45 -19 53 -24 12 -31 12
-53 -1z m62 -72 c0 -20 -22 -37 -47 -37 -16 0 -23 6 -23 19 0 11 6 22 13 24
24 10 57 7 57 -6z"/>
<path d="M4732 4189 c-2 -68 11 -83 62 -73 l36 6 0 59 c0 73 -18 78 -22 7 -3
-49 -5 -53 -30 -56 -29 -3 -34 5 -41 78 -3 23 -4 15 -5 -21z"/>
<path d="M4983 4180 c0 -36 2 -50 4 -32 2 17 2 47 0 65 -2 17 -4 3 -4 -33z"/>
<path d="M5033 4183 c9 -2 25 -2 35 0 9 3 1 5 -18 5 -19 0 -27 -2 -17 -5z"/>
<path d="M4711 3978 c-5 -13 -20 -51 -34 -85 -14 -35 -21 -63 -16 -63 5 0 14
11 19 25 8 21 16 25 50 25 34 0 42 -4 50 -25 5 -14 14 -25 19 -25 12 0 -54
163 -68 168 -6 2 -15 -7 -20 -20z m32 -25 c2 -10 8 -26 12 -35 6 -15 2 -18
-24 -18 -17 0 -31 2 -31 4 0 1 5 17 11 35 12 35 24 40 32 14z"/>
<path d="M5290 3990 c0 -5 5 -10 10 -10 6 0 10 5 10 10 0 6 -4 10 -10 10 -5 0
-10 -4 -10 -10z"/>
<path d="M4831 3973 c-1 -12 -7 -24 -13 -26 -10 -4 -10 -6 0 -6 8 -1 12 -19
12 -56 0 -50 2 -55 23 -55 20 1 20 2 5 11 -12 7 -18 22 -18 49 0 27 6 42 18
49 10 6 12 11 4 11 -7 0 -17 10 -22 23 -9 22 -9 22 -9 0z"/>
<path d="M4900 3970 c0 -11 -6 -20 -12 -20 -10 0 -10 -2 -1 -8 6 -4 13 -30 15
-57 2 -41 7 -50 23 -52 11 -2 14 0 8 3 -8 3 -13 25 -13 54 0 29 5 50 13 53 10
4 10 6 0 6 -7 1 -13 10 -13 21 0 11 -4 20 -10 20 -5 0 -10 -9 -10 -20z"/>
<path d="M5231 3973 c-1 -12 -7 -24 -13 -26 -10 -4 -10 -6 0 -6 8 -1 12 -19
12 -56 0 -50 2 -55 23 -55 20 1 20 2 5 11 -12 7 -18 22 -18 49 0 27 6 42 18
49 10 6 12 11 4 11 -7 0 -17 10 -22 23 -9 22 -9 22 -9 0z"/>
<path d="M4982 3944 c-44 -30 -22 -124 29 -124 21 0 64 38 54 48 -4 4 -11 -1
-16 -11 -12 -21 -52 -22 -69 -2 -19 23 -3 35 46 35 42 0 45 2 39 23 -7 24 -32
47 -50 47 -6 0 -21 -7 -33 -16z m56 -16 c21 -21 13 -28 -28 -28 -22 0 -40 4
-40 8 0 14 23 32 40 32 9 0 21 -5 28 -12z"/>
<path d="M5131 3951 c-8 -5 -20 -7 -28 -4 -10 4 -13 -9 -13 -56 0 -75 18 -81
22 -8 3 48 5 52 30 55 29 3 34 -5 41 -78 2 -22 4 -14 5 22 2 47 -1 59 -17 68
-23 12 -22 12 -40 1z"/>
<path d="M5355 3935 c-28 -27 -30 -42 -13 -80 26 -57 108 -35 108 30 0 37 -28
75 -55 75 -9 0 -27 -11 -40 -25z m75 -20 c14 -36 -3 -75 -33 -75 -30 0 -47 18
-47 50 0 52 62 72 80 25z"/>
<path d="M5510 3951 c-8 -6 -18 -7 -22 -5 -4 3 -7 -23 -7 -58 l2 -63 6 47 c8
54 20 72 47 66 15 -2 20 -14 22 -56 4 -66 22 -69 22 -3 0 67 -30 97 -70 72z"/>
<path d="M5290 3890 c0 -33 4 -60 10 -60 6 0 10 27 10 60 0 33 -4 60 -10 60
-6 0 -10 -27 -10 -60z"/>
<path d="M2047 4314 c-11 -11 -8 -174 3 -174 5 0 10 30 12 68 l3 67 25 -64
c14 -34 30 -63 35 -63 6 0 21 29 35 63 l25 64 3 -67 c4 -101 22 -83 22 22 0
55 -4 90 -10 90 -6 0 -20 -21 -30 -47 -11 -27 -26 -61 -33 -77 l-13 -29 -24
64 c-24 67 -42 94 -53 83z"/>
<path d="M2491 4304 c0 -11 3 -14 6 -6 3 7 2 16 -1 19 -3 4 -6 -2 -5 -13z"/>
<path d="M2630 4232 c0 -60 4 -91 10 -87 6 3 10 22 10 41 l0 34 50 0 50 0 0
-41 c0 -24 4 -38 10 -34 6 3 10 42 10 85 0 43 -4 82 -10 85 -6 4 -10 -10 -10
-34 l0 -41 -50 0 c-48 0 -50 1 -50 28 0 15 -5 34 -10 42 -7 10 -10 -14 -10
-78z"/>
<path d="M3147 4313 c-4 -3 -7 -17 -7 -30 0 -20 -4 -22 -24 -17 -53 13 -89
-41 -64 -94 12 -24 19 -27 61 -27 l47 -1 0 88 c0 88 -1 94 -13 81z m-9 -101
c2 -18 -2 -40 -9 -48 -16 -20 -46 -17 -59 5 -23 45 -4 84 40 79 20 -2 26 -9
28 -36z"/>
<path d="M2370 4225 c0 -50 4 -85 10 -85 6 0 10 35 10 85 0 50 -4 85 -10 85
-6 0 -10 -35 -10 -85z"/>
<path d="M2431 4295 c0 -12 -6 -26 -13 -33 -9 -9 -9 -12 -1 -12 7 0 13 -21 15
-52 2 -44 6 -53 23 -56 18 -2 18 -2 3 8 -25 15 -26 100 -1 100 15 0 15 1 1 13
-9 6 -18 21 -21 32 -5 20 -5 20 -6 0z"/>
<path d="M2493 4205 c0 -38 2 -53 4 -32 2 20 2 52 0 70 -2 17 -4 1 -4 -38z"/>
<path d="M2810 4250 c-22 -22 -26 -60 -10 -91 7 -13 21 -19 44 -19 33 0 66 24
52 38 -4 4 -12 -1 -17 -11 -12 -20 -40 -22 -57 -5 -25 25 -13 38 33 38 37 0
45 3 45 18 0 23 -30 52 -53 52 -9 0 -26 -9 -37 -20z m68 -22 c3 -15 -4 -18
-32 -18 -34 0 -47 15 -29 34 13 13 58 1 61 -16z"/>
<path d="M2942 4258 c-7 -7 -12 -16 -12 -22 0 -6 5 -5 12 2 20 20 58 15 58 -8
0 -15 -7 -20 -29 -20 -33 0 -54 -21 -49 -47 3 -14 14 -18 53 -19 l50 -1 -4 51
c-1 28 -8 57 -13 64 -13 15 -50 16 -66 0z m68 -64 c0 -20 -24 -44 -44 -44 -27
0 -40 22 -23 39 11 11 67 16 67 5z"/>
<path d="M2244 4205 l1 -60 48 0 47 -1 0 58 c0 68 -17 80 -18 13 -1 -56 -7
-65 -37 -65 -19 0 -25 6 -29 33 -3 17 -7 43 -10 57 -2 14 -3 -2 -2 -35z"/>
<path d="M2543 4203 c9 -2 25 -2 35 0 9 3 1 5 -18 5 -19 0 -27 -2 -17 -5z"/>
<path d="M2165 3943 c-17 -42 -31 -80 -33 -85 -2 -4 1 -8 6 -8 5 0 13 11 16
25 5 21 12 25 46 25 33 0 42 -4 52 -25 10 -22 35 -38 26 -17 -1 5 -16 43 -33
85 -16 42 -34 77 -40 77 -6 0 -24 -35 -40 -77z m60 5 c7 -26 5 -28 -25 -28
-17 0 -29 4 -26 9 3 4 10 21 16 36 12 32 25 25 35 -17z"/>
<path d="M2770 4010 c0 -5 5 -10 10 -10 6 0 10 5 10 10 0 6 -4 10 -10 10 -5 0
-10 -4 -10 -10z"/>
<path d="M2311 3993 c0 -13 -6 -23 -13 -23 -9 0 -9 -3 0 -12 7 -7 12 -33 12
-59 0 -32 5 -49 15 -52 8 -4 17 -2 20 2 3 5 -2 11 -10 15 -22 8 -20 82 3 95
15 9 16 10 0 11 -9 0 -19 10 -21 23 l-4 22 -2 -22z"/>
<path d="M2380 3990 c0 -11 -5 -20 -12 -20 -9 0 -9 -3 0 -12 7 -7 12 -31 12
-54 0 -42 22 -76 35 -54 3 5 1 10 -4 10 -16 0 -14 97 2 103 10 4 10 6 0 6 -7
1 -13 10 -13 21 0 11 -4 20 -10 20 -5 0 -10 -9 -10 -20z"/>
<path d="M2711 3993 c0 -13 -6 -23 -13 -23 -9 0 -9 -3 0 -12 7 -7 12 -33 12
-59 0 -32 5 -49 15 -52 8 -4 17 -2 20 2 3 5 -2 11 -10 15 -22 8 -20 82 3 95
15 9 16 10 0 11 -9 0 -19 10 -21 23 l-4 22 -2 -22z"/>
<path d="M2449 3954 c-19 -23 -15 -85 7 -101 35 -26 84 -10 84 27 -1 12 -2 12
-11 -2 -12 -21 -49 -24 -67 -6 -21 21 -13 28 32 28 53 0 64 12 42 45 -19 29
-66 34 -87 9z m69 -6 c21 -21 13 -28 -28 -28 -38 0 -40 2 -30 20 12 22 40 26
58 8z"/>
<path d="M2570 3908 c0 -32 4 -58 10 -58 6 0 10 22 10 49 0 41 3 51 20 56 31
10 49 -11 53 -63 3 -36 4 -33 3 13 l-1 60 -47 0 -48 1 0 -58z"/>
<path d="M2770 3910 c0 -33 4 -60 10 -60 6 0 10 27 10 60 0 33 -4 60 -10 60
-6 0 -10 -27 -10 -60z"/>
<path d="M2824 3945 c-42 -64 39 -143 89 -87 21 23 22 76 1 96 -24 25 -71 20
-90 -9z m81 -9 c23 -35 5 -76 -34 -76 -30 0 -41 14 -41 54 0 47 49 62 75 22z"/>
<path d="M2950 3908 c0 -32 4 -58 10 -58 6 0 10 19 10 43 0 46 13 67 41 67 21
0 29 -20 29 -71 0 -21 5 -39 10 -39 13 0 13 61 0 94 -8 23 -15 26 -55 24 l-45
-1 0 -59z"/>
<path d="M2588 2633 c-3 -36 -5 -38 -40 -41 -51 -4 -49 -22 2 -22 l40 0 0 -41
c0 -24 4 -38 10 -34 6 3 10 22 10 41 0 32 2 34 34 34 19 0 38 5 41 10 4 6 -10
10 -34 10 l-41 0 0 40 c0 51 -18 53 -22 3z"/>
<path d="M5076 2624 c-3 -9 -6 -29 -6 -45 0 -27 -2 -29 -42 -29 -27 0 -38 -3
-30 -9 7 -4 25 -7 40 -6 24 1 27 -3 32 -39 6 -51 23 -50 30 1 5 35 8 38 37 38
17 0 35 3 39 8 4 4 -11 7 -34 7 l-42 0 0 39 c0 42 -14 62 -24 35z"/>
<path d="M4784 2080 c-50 -20 -68 -84 -39 -139 24 -48 81 -56 120 -16 33 32
35 105 5 135 -11 11 -24 20 -29 20 -5 0 -15 2 -23 4 -7 3 -23 1 -34 -4z m79
-42 c28 -38 15 -97 -27 -116 -25 -13 -31 -12 -55 5 -33 26 -42 95 -15 125 25
27 72 20 97 -14z"/>
<path d="M5061 2053 c0 -13 -6 -23 -13 -23 -9 0 -9 -3 0 -12 7 -7 12 -34 12
-60 0 -43 2 -48 23 -48 20 1 20 2 5 11 -12 7 -18 22 -18 49 0 27 6 42 18 49
15 9 16 10 0 11 -9 0 -19 10 -21 23 l-4 22 -2 -22z"/>
<path d="M5400 2050 c0 -11 -6 -20 -12 -20 -10 0 -10 -2 -1 -8 6 -4 13 -30 15
-57 3 -45 5 -50 28 -52 14 -1 18 0 8 3 -14 4 -18 16 -18 54 0 38 4 50 18 53
16 4 16 5 0 6 -11 1 -18 9 -18 21 0 11 -4 20 -10 20 -5 0 -10 -9 -10 -20z"/>
<path d="M5161 2031 c-8 -5 -20 -7 -28 -4 -10 4 -13 -13 -13 -81 0 -51 4 -86
10 -86 6 0 11 15 11 33 1 17 2 49 3 71 2 73 68 76 74 3 3 -39 -21 -63 -54 -50
-12 4 -15 3 -10 -5 11 -18 44 -14 66 8 29 29 26 74 -6 99 -30 24 -33 24 -53
12z"/>
<path d="M4920 1977 c0 -67 17 -86 60 -70 21 8 30 8 34 -1 2 -6 4 21 4 59 -1
65 -1 67 -7 22 -13 -91 -71 -104 -71 -17 0 27 -4 52 -10 55 -6 4 -10 -14 -10
-48z"/>
<path d="M5260 1984 c0 -25 5 -54 10 -65 12 -21 54 -26 66 -8 4 8 9 7 15 -2 5
-9 8 14 7 56 -1 53 -2 59 -5 24 -4 -51 -29 -84 -57 -73 -12 5 -16 19 -16 60 0
30 -4 54 -10 54 -5 0 -10 -21 -10 -46z"/>
<path d="M4500 1700 l0 -90 63 2 62 2 -52 3 c-53 4 -53 4 -53 39 0 34 0 34 45
34 25 0 45 5 45 10 0 6 -20 10 -45 10 -43 0 -45 1 -45 30 0 29 1 30 51 30 31
0 48 4 44 10 -3 6 -31 10 -61 10 l-54 0 0 -90z"/>
<path d="M4852 1705 l-2 -90 44 -3 c36 -2 47 1 55 17 17 32 13 76 -10 96 -17
16 -25 17 -49 8 -28 -11 -29 -10 -33 26 -2 20 -4 -4 -5 -54z m86 -6 c20 -35 1
-79 -32 -79 -46 0 -62 67 -24 94 28 20 39 17 56 -15z"/>
<path d="M5210 1758 c0 -36 0 -36 -29 -25 -25 9 -33 8 -50 -8 -24 -21 -28 -72
-8 -99 10 -13 23 -16 57 -13 l45 4 3 78 c2 45 -2 83 -8 89 -7 7 -10 -1 -10
-26z m-18 -45 c31 -28 16 -93 -22 -93 -20 0 -50 35 -50 57 0 14 35 53 47 53 3
0 15 -7 25 -17z"/>
<path d="M5350 1759 c0 -29 -2 -30 -31 -24 -42 9 -69 -16 -69 -65 0 -47 17
-61 69 -58 l41 3 0 88 c0 48 -2 87 -5 87 -3 0 -5 -14 -5 -31z m-20 -49 c24
-24 26 -53 4 -75 -42 -41 -94 18 -60 69 20 31 30 32 56 6z"/>
<path d="M5401 1774 c0 -11 3 -14 6 -6 3 7 2 16 -1 19 -3 4 -6 -2 -5 -13z"/>
<path d="M4663 1733 c-21 -4 -23 -10 -23 -58 0 -30 5 -57 10 -60 6 -4 10 13
10 44 0 38 4 53 18 59 31 17 42 3 42 -54 0 -30 5 -54 10 -54 6 0 10 22 10 49
0 52 16 76 44 65 12 -5 16 -19 16 -60 0 -30 5 -54 10 -54 6 0 10 24 10 54 0
66 -17 85 -61 69 -17 -7 -31 -7 -35 -2 -5 9 -21 10 -61 2z"/>
<path d="M4997 1722 c-19 -21 -22 -64 -7 -93 15 -27 75 -26 90 1 6 11 7 20 1
20 -5 0 -11 -7 -15 -15 -11 -29 -66 -11 -66 22 0 9 15 13 45 13 37 0 45 3 45
18 0 24 -31 52 -57 52 -11 0 -27 -8 -36 -18z m73 -22 c0 -6 -16 -10 -35 -10
-38 0 -46 13 -18 29 19 10 53 -2 53 -19z"/>
<path d="M5403 1675 c0 -38 2 -53 4 -32 2 20 2 52 0 70 -2 17 -4 1 -4 -38z"/>
<path d="M5463 1733 c-21 -4 -23 -10 -23 -64 0 -38 4 -58 10 -54 6 3 10 26 10
50 0 33 5 47 19 54 30 16 50 -7 54 -64 l3 -50 2 56 c3 74 -9 85 -75 72z"/>
<path d="M5589 1730 c-22 -13 -31 -53 -19 -84 11 -29 55 -45 73 -26 9 10 7 11
-9 6 -44 -13 -73 54 -38 88 35 36 63 5 62 -69 -1 -67 -22 -88 -64 -60 -25 16
-33 8 -12 -13 20 -20 65 -14 82 10 22 31 23 153 1 145 -8 -4 -17 -2 -20 3 -8
13 -35 12 -56 0z"/>
<path d="M6740 5620 c0 -120 18 -136 22 -20 l3 81 54 -81 c30 -44 60 -80 68
-80 10 0 13 23 13 100 0 121 -18 135 -22 18 l-3 -83 -58 83 c-32 45 -63 82
-68 82 -5 0 -9 -45 -9 -100z"/>
<path d="M6965 5620 l29 -30 -29 -30 c-16 -16 -24 -30 -19 -30 6 0 21 11 34
25 l24 25 28 -27 c33 -31 38 -20 6 14 l-22 23 29 30 c16 17 24 30 18 30 -5 0
-18 -9 -28 -20 -10 -11 -23 -20 -30 -20 -7 0 -20 9 -30 20 -10 11 -23 20 -28
20 -6 0 2 -13 18 -30z"/>
<path d="M560 4750 c0 -121 18 -135 22 -17 l3 82 55 -82 c30 -46 61 -83 68
-83 9 0 12 27 12 100 0 120 -18 135 -22 19 l-3 -81 -55 81 c-30 44 -61 81 -67
81 -10 0 -13 -27 -13 -100z"/>
<path d="M785 4750 l29 -30 -29 -30 c-16 -16 -24 -30 -19 -30 6 0 21 11 34 25
l24 25 26 -25 c37 -35 50 -31 15 5 l-29 30 29 30 c16 17 24 30 18 30 -5 0 -18
-9 -28 -20 -10 -11 -23 -20 -30 -20 -7 0 -20 9 -30 20 -10 11 -23 20 -28 20
-6 0 2 -13 18 -30z"/>
<path d="M367 2873 c-11 -10 -8 -181 2 -188 6 -3 11 14 13 37 l3 43 50 3 c27
2 55 8 62 14 16 13 17 70 1 86 -13 13 -120 17 -131 5z m122 -31 c17 -33 -5
-52 -59 -52 l-50 0 0 35 0 35 50 0 c37 0 52 -4 59 -18z"/>
<path d="M841 2864 c0 -11 3 -14 6 -6 3 7 2 16 -1 19 -3 4 -6 -2 -5 -13z"/>
<path d="M970 2871 c0 -6 5 -13 10 -16 6 -3 10 1 10 9 0 9 -4 16 -10 16 -5 0
-10 -4 -10 -9z"/>
<path d="M1494 2780 c0 -58 1 -81 3 -52 2 28 2 76 0 105 -2 28 -3 5 -3 -53z"/>
<path d="M900 2851 c0 -11 -6 -22 -12 -24 -10 -4 -10 -7 -1 -14 6 -5 13 -35
15 -68 3 -56 5 -60 28 -63 22 -2 23 -1 8 8 -13 8 -18 24 -18 62 0 37 5 54 18
64 16 13 16 13 0 14 -11 0 -18 8 -18 20 0 11 -4 20 -10 20 -5 0 -10 -9 -10
-19z"/>
<path d="M557 2813 c-23 -26 -30 -68 -16 -95 16 -31 28 -38 66 -38 39 0 63 30
63 77 0 61 -74 98 -113 56z m75 -10 c21 -19 25 -82 6 -101 -32 -32 -88 4 -88
55 0 24 32 63 52 63 6 0 20 -7 30 -17z"/>
<path d="M706 2814 c-28 -28 -16 -48 39 -66 29 -9 40 -19 40 -33 0 -27 -54
-34 -72 -9 -7 10 -16 15 -19 11 -4 -4 -1 -13 6 -22 16 -20 84 -20 100 0 21 25
-2 61 -44 69 -41 8 -53 21 -36 41 16 19 35 19 55 -1 20 -20 33 -11 15 11 -16
20 -64 19 -84 -1z"/>
<path d="M843 2755 c0 -44 2 -61 4 -37 2 23 2 59 0 80 -2 20 -4 1 -4 -43z"/>
<path d="M977 2823 c-11 -10 -8 -131 3 -138 6 -4 10 22 10 69 0 76 -1 82 -13
69z"/>
<path d="M1040 2810 c-26 -26 -27 -90 -2 -113 19 -18 68 -22 89 -9 18 12 34
62 27 86 -17 56 -76 74 -114 36z m70 0 c27 -14 35 -65 16 -95 -18 -27 -54 -33
-74 -13 -17 17 -15 84 4 102 18 19 28 20 54 6z"/>
<path d="M1192 2755 c1 -75 1 -77 7 -24 6 61 23 89 52 89 25 0 33 -16 40 -85
l6 -60 -1 69 c-1 81 -15 98 -65 79 -22 -8 -31 -8 -35 1 -2 6 -4 -25 -4 -69z"/>
<path d="M1352 2818 c-7 -7 -12 -19 -12 -27 0 -12 6 -9 19 8 14 19 24 22 45
17 17 -4 26 -13 26 -26 0 -15 -9 -21 -40 -26 -48 -8 -64 -25 -56 -59 6 -23 10
-24 71 -23 42 2 61 6 55 12 -6 6 -10 33 -10 61 0 59 -12 75 -55 75 -17 0 -36
-5 -43 -12z m78 -86 c0 -25 -19 -42 -47 -42 -28 0 -40 24 -23 45 18 22 70 20
70 -3z"/>
<path d="M6190 2730 c0 -60 4 -100 10 -100 6 0 10 20 10 45 l0 45 49 0 c55 0
81 17 81 54 0 38 -30 56 -93 56 l-57 0 0 -100z m126 53 c9 -34 -16 -53 -68
-53 -38 0 -38 0 -38 40 l0 40 50 0 c45 0 50 -2 56 -27z"/>
<path d="M6660 2815 c0 -8 5 -15 10 -15 6 0 10 7 10 15 0 8 -4 15 -10 15 -5 0
-10 -7 -10 -15z"/>
<path d="M6800 2814 c0 -8 5 -12 10 -9 6 3 10 10 10 16 0 5 -4 9 -10 9 -5 0
-10 -7 -10 -16z"/>
<path d="M7310 2730 c0 -60 4 -100 10 -100 6 0 10 40 10 100 0 60 -4 100 -10
100 -6 0 -10 -40 -10 -100z"/>
<path d="M6731 2806 c0 -10 -9 -25 -18 -32 -17 -12 -17 -13 -1 -14 14 0 18
-12 20 -62 3 -54 6 -63 23 -66 18 -2 18 -2 3 8 -24 15 -26 120 -3 120 8 0 15
5 15 10 0 6 -6 10 -14 10 -8 0 -17 10 -19 23 -3 17 -5 18 -6 3z"/>
<path d="M6379 2759 c-30 -30 -23 -95 13 -122 23 -17 30 -18 57 -7 55 22 63
112 12 139 -30 17 -59 13 -82 -10z m81 -9 c24 -24 26 -57 4 -88 -17 -24 -53
-29 -72 -10 -17 17 -15 78 5 100 21 23 38 23 63 -2z"/>
<path d="M6536 2764 c-28 -27 -16 -48 39 -67 50 -17 56 -50 11 -55 -22 -3 -34
3 -48 20 -14 19 -18 20 -18 6 0 -45 88 -59 110 -18 15 28 2 48 -38 61 -49 15
-58 25 -42 44 17 21 36 19 60 -7 15 -16 20 -18 20 -7 0 38 -64 54 -94 23z"/>
<path d="M6870 2760 c-31 -31 -27 -93 6 -119 34 -27 47 -26 80 3 22 18 28 32
27 62 -2 66 -69 98 -113 54z m75 -4 c22 -16 26 -76 6 -100 -16 -19 -54 -21
-69 -3 -20 24 -18 79 4 101 19 20 35 20 59 2z"/>
<path d="M7045 2770 c-3 -5 -12 -7 -20 -3 -12 4 -15 -8 -15 -66 0 -41 4 -71
10 -71 6 0 10 27 10 60 0 55 2 62 25 72 39 18 55 -3 55 -73 0 -33 4 -59 10
-59 17 0 12 116 -6 134 -17 18 -59 21 -69 6z"/>
<path d="M7176 2764 c-17 -16 -21 -34 -8 -34 4 0 13 9 20 20 15 24 45 26 63 4
11 -14 10 -18 -6 -30 -10 -8 -27 -14 -36 -14 -34 0 -49 -12 -49 -41 0 -18 7
-32 19 -39 26 -13 34 -13 57 5 18 13 16 14 -17 8 -29 -4 -37 -2 -43 13 -9 24
18 44 57 44 25 0 28 -3 24 -21 -7 -28 2 -49 21 -49 12 0 13 3 4 12 -7 7 -12
35 -12 63 0 28 -5 56 -12 63 -17 17 -64 15 -82 -4z"/>
<path d="M6660 2700 c0 -40 4 -70 10 -70 6 0 10 30 10 70 0 40 -4 70 -10 70
-6 0 -10 -30 -10 -70z"/>
<path d="M6800 2700 c0 -40 4 -70 10 -70 6 0 10 30 10 70 0 40 -4 70 -10 70
-6 0 -10 -30 -10 -70z"/>
<path d="M364 2527 c-3 -8 -4 -54 -2 -103 l3 -89 59 -3 c84 -4 107 11 26 18
l-65 5 -3 38 -3 37 60 0 c34 0 61 4 61 10 0 6 -27 10 -60 10 l-60 0 0 35 0 35
66 0 c41 0 63 4 59 10 -10 16 -135 13 -141 -3z"/>
<path d="M1107 2533 c-4 -3 -7 -19 -7 -34 0 -26 -2 -28 -26 -19 -26 10 -61 -1
-76 -24 -13 -19 -9 -81 8 -104 17 -24 62 -30 82 -10 10 10 15 10 22 -2 7 -10
10 21 10 93 0 107 -1 113 -13 100z m-19 -75 c19 -19 15 -82 -7 -102 -52 -48
-105 44 -59 102 13 15 50 16 66 0z"/>
<path d="M1156 2531 c-4 -7 -5 -15 -2 -18 9 -9 19 4 14 18 -4 11 -6 11 -12 0z"/>
<path d="M575 2481 c-11 -5 -26 -6 -32 -4 -16 6 -18 -132 -3 -142 6 -4 10 16
10 53 0 65 13 86 52 80 21 -3 23 -9 26 -63 4 -85 22 -95 22 -13 0 58 -3 69
-22 82 -25 18 -25 18 -53 7z"/>
<path d="M730 2482 c-52 -16 -69 -93 -30 -132 32 -32 100 -20 100 17 0 13 -5
12 -25 -7 -29 -27 -50 -21 -74 22 -12 21 -12 28 0 54 16 33 65 46 75 20 8 -20
24 -21 24 -2 0 16 -48 35 -70 28z"/>
<path d="M863 2478 c-26 -12 -47 -66 -37 -94 29 -82 134 -66 134 20 0 58 -50
96 -97 74z m65 -20 c29 -29 3 -118 -35 -118 -21 0 -53 38 -53 63 0 51 56 87
88 55z"/>
<path d="M1252 2479 c-13 -5 -28 -7 -33 -3 -5 3 -9 -28 -9 -71 0 -48 4 -74 10
-70 6 3 10 30 10 59 0 56 12 76 46 76 27 0 34 -17 34 -86 0 -34 4 -53 10 -49
15 9 13 121 -2 132 -22 17 -42 21 -66 12z"/>
<path d="M1392 2480 c-32 -13 -45 -55 -32 -96 13 -39 47 -53 86 -35 20 9 24 8
24 -5 0 -51 -54 -72 -93 -36 -16 13 -19 14 -15 2 2 -8 17 -21 31 -28 22 -11
32 -11 55 0 26 13 27 16 30 103 2 81 1 91 -15 91 -10 1 -25 4 -33 7 -8 3 -25
2 -38 -3z m68 -42 c13 -25 13 -31 0 -55 -20 -36 -53 -41 -74 -11 -21 29 -20
62 0 83 23 23 56 15 74 -17z"/>
<path d="M6197 2483 c-4 -3 -7 -51 -7 -105 l0 -98 70 0 c40 0 70 4 70 10 0 6
-27 10 -60 10 l-60 0 0 40 0 40 55 0 c30 0 55 5 55 10 0 6 -25 10 -55 10 l-55
0 0 35 0 35 61 0 c37 0 58 4 54 10 -7 11 -118 14 -128 3z"/>
<path d="M1150 2411 c0 -39 5 -73 10 -76 6 -4 10 22 10 69 0 44 -4 76 -10 76
-6 0 -10 -30 -10 -69z"/>
<path d="M6930 2445 c0 -35 0 -35 -24 -20 -17 12 -30 13 -49 6 -78 -30 -54
-163 26 -147 18 4 40 7 50 7 15 0 17 12 17 95 0 56 -4 94 -10 94 -5 0 -10 -16
-10 -35z m-11 -56 c19 -34 7 -77 -24 -91 -48 -22 -84 47 -54 103 15 28 59 21
78 -12z"/>
<path d="M6980 2470 c0 -5 5 -10 10 -10 6 0 10 5 10 10 0 6 -4 10 -10 10 -5 0
-10 -4 -10 -10z"/>
<path d="M2571 2384 c-25 -66 -25 -68 -6 -60 12 4 15 -6 15 -64 l0 -70 -374 0
c-235 0 -385 -4 -402 -10 -53 -21 -53 -22 -54 -346 0 -290 1 -302 21 -328 l20
-26 809 0 809 0 20 26 c20 26 21 38 21 320 0 310 -3 333 -47 353 -16 7 -147
11 -403 11 l-380 0 0 70 c0 61 2 69 17 63 18 -7 18 -7 -15 74 -9 24 -20 43
-23 43 -3 0 -16 -25 -28 -56z m827 -256 c17 -17 17 -579 0 -596 -17 -17 -1579
-17 -1596 0 -9 9 -12 88 -12 294 0 155 3 289 6 298 6 14 85 16 798 16 603 0
795 -3 804 -12z"/>
<path d="M2350 1995 c0 -50 4 -85 10 -85 6 0 10 35 10 85 0 50 -4 85 -10 85
-6 0 -10 -35 -10 -85z"/>
<path d="M2815 2055 c-5 -11 -13 -23 -19 -27 -7 -5 -7 -8 2 -8 7 0 12 -15 12
-39 0 -54 8 -71 34 -70 16 1 17 2 4 6 -14 3 -18 15 -18 48 0 31 5 47 18 54 15
9 16 10 0 11 -9 0 -18 10 -21 23 -3 21 -4 21 -12 2z"/>
<path d="M2441 2031 c-8 -5 -20 -7 -28 -4 -10 4 -13 -9 -13 -56 0 -71 17 -83
22 -15 3 50 22 72 52 61 12 -5 16 -19 16 -57 0 -27 5 -50 10 -50 19 0 11 89
-10 110 -22 22 -29 24 -49 11z"/>
<path d="M2571 2031 c-8 -5 -20 -7 -28 -4 -10 4 -13 -13 -13 -81 0 -51 4 -86
10 -86 6 0 10 14 10 30 0 27 2 29 19 18 15 -9 25 -9 45 0 47 21 47 99 1 120
-31 14 -27 14 -44 3z m47 -23 c20 -20 15 -76 -9 -88 -16 -9 -25 -8 -40 6 -34
30 -20 94 21 94 9 0 21 -5 28 -12z"/>
<path d="M2682 1974 c-2 -70 7 -79 64 -68 l34 6 0 59 c0 33 -4 59 -10 59 -5 0
-10 -22 -10 -50 0 -38 -4 -52 -19 -59 -30 -16 -50 7 -54 64 -3 49 -3 48 -5
-11z"/>
<path d="M2010 1700 l0 -90 63 2 62 2 -52 3 c-53 4 -53 4 -53 39 0 34 0 34 45
34 25 0 45 5 45 10 0 6 -20 10 -45 10 -43 0 -45 1 -45 30 0 29 1 30 50 30 28
0 50 5 50 10 0 6 -27 10 -60 10 l-60 0 0 -90z"/>
<path d="M2361 1705 l-1 -90 41 -3 c52 -3 69 11 69 59 0 56 -39 85 -80 59 -12
-8 -16 -2 -21 28 -4 24 -7 7 -8 -53z m81 8 c31 -28 16 -93 -22 -93 -20 0 -50
35 -50 57 0 14 35 53 47 53 3 0 15 -7 25 -17z"/>
<path d="M2719 1755 c-1 -22 -2 -57 -3 -79 -2 -73 -68 -76 -74 -3 -3 39 21 63
54 50 12 -4 15 -3 10 5 -21 35 -86 -8 -86 -57 0 -43 25 -63 74 -59 l41 4 3 78
c2 46 -2 84 -8 90 -7 7 -10 -2 -11 -29z"/>
<path d="M2867 1783 c-4 -3 -7 -17 -7 -30 0 -20 -4 -22 -24 -17 -55 14 -95
-51 -61 -102 14 -21 22 -24 60 -22 l45 3 0 88 c0 87 -1 93 -13 80z m-23 -66
c22 -16 18 -75 -6 -91 -42 -26 -79 52 -43 88 20 19 26 20 49 3z"/>
<path d="M2911 1774 c0 -11 3 -14 6 -6 3 7 2 16 -1 19 -3 4 -6 -2 -5 -13z"/>
<path d="M2178 1733 c-15 -4 -18 -15 -17 -66 l2 -62 6 53 c6 47 20 71 43 72
14 0 21 -24 20 -66 -1 -23 2 -46 8 -49 6 -4 10 13 10 44 0 38 4 53 18 59 30
16 42 3 42 -48 0 -27 5 -52 10 -55 6 -4 10 14 10 48 0 67 -17 86 -61 70 -17
-7 -31 -7 -35 -2 -5 9 -26 10 -56 2z"/>
<path d="M2516 1724 c-19 -18 -21 -85 -4 -102 24 -24 88 -9 88 22 0 5 -8 2
-18 -7 -25 -22 -49 -21 -62 2 -15 30 -14 31 41 31 48 0 50 1 44 23 -14 44 -60
61 -89 31z m60 -8 c26 -19 14 -28 -32 -24 -36 3 -37 4 -20 21 21 21 27 21 52
3z"/>
<path d="M2913 1675 c0 -38 2 -53 4 -32 2 20 2 52 0 70 -2 17 -4 1 -4 -38z"/>
<path d="M2973 1733 c-21 -4 -23 -10 -23 -64 0 -33 4 -59 10 -59 6 0 10 22 10
50 0 40 4 51 21 60 31 17 47 -3 52 -63 l3 -52 2 61 c2 74 -5 80 -75 67z"/>
<path d="M3096 1724 c-9 -9 -16 -32 -16 -54 0 -45 25 -66 66 -56 17 5 24 2 24
-8 0 -26 -33 -37 -63 -21 -15 8 -27 10 -27 5 0 -13 34 -30 59 -30 33 0 51 38
51 106 0 61 0 62 -31 68 -43 8 -46 8 -63 -10z m55 -4 c27 -15 26 -75 -2 -90
-43 -24 -78 43 -42 82 19 21 19 21 44 8z"/>
<path d="M6397 2429 c-9 -5 -22 -7 -27 -4 -6 4 -9 -22 -9 -72 l2 -78 7 64 c7
63 18 81 52 81 24 0 32 -17 39 -85 l6 -60 1 73 c2 69 1 73 -24 82 -30 12 -25
12 -47 -1z"/>
<path d="M6543 2430 c-45 -18 -56 -80 -22 -124 25 -32 68 -35 94 -6 25 27 12
37 -14 11 -25 -25 -30 -26 -59 -5 -41 28 -22 114 25 114 9 0 25 -7 35 -17 22
-19 33 -13 15 9 -16 21 -47 29 -74 18z"/>
<path d="M6693 2430 c-70 -29 -50 -150 25 -150 73 0 93 118 26 149 -14 6 -26
11 -27 10 -1 0 -12 -4 -24 -9z m66 -41 c19 -34 7 -77 -24 -91 -21 -9 -28 -8
-45 7 -23 21 -27 84 -8 103 20 20 61 10 77 -19z"/>
<path d="M7080 2430 c-8 -5 -23 -7 -32 -4 -16 5 -18 -3 -18 -65 0 -38 5 -73
10 -76 6 -4 10 14 10 47 0 64 16 91 51 86 22 -3 24 -8 27 -63 4 -84 22 -96 22
-14 0 35 -4 69 -8 75 -11 17 -45 25 -62 14z"/>
<path d="M7207 2420 c-33 -26 -38 -87 -9 -113 21 -19 67 -23 78 -6 4 7 0 9
-14 5 -36 -12 -62 10 -62 52 0 21 5 43 12 50 18 18 56 15 67 -6 12 -23 11
-134 -1 -149 -14 -18 -48 -16 -70 4 -17 15 -18 15 -18 -1 0 -21 43 -38 76 -30
35 9 44 33 44 122 0 76 -1 80 -22 79 -13 0 -30 3 -39 7 -9 4 -26 -2 -42 -14z"/>
<path d="M6980 2354 c0 -47 4 -73 10 -69 6 3 10 37 10 76 0 39 -4 69 -10 69
-6 0 -10 -32 -10 -76z"/>
<path d="M2572 1412 c-26 -68 -27 -73 -7 -66 13 5 15 -18 15 -175 0 -174 1
-181 20 -181 19 0 20 7 20 181 0 157 2 180 15 175 8 -3 15 -2 15 1 0 13 -45
123 -50 123 -3 0 -15 -26 -28 -58z"/>
<path d="M4674 853 c-69 -13 -95 -126 -41 -180 38 -39 99 -39 133 0 26 31 33
101 13 139 -9 16 -71 52 -81 47 -2 -1 -13 -4 -24 -6z m71 -35 c38 -33 38 -103
1 -135 -67 -58 -146 10 -117 100 19 56 72 72 116 35z"/>
<path d="M2240 750 c0 -60 4 -100 10 -100 6 0 10 40 10 100 0 60 -4 100 -10
100 -6 0 -10 -40 -10 -100z"/>
<path d="M2780 821 c0 -11 -6 -22 -12 -24 -10 -4 -10 -7 -1 -14 6 -5 13 -35
15 -68 3 -56 5 -60 28 -62 14 -1 18 0 8 3 -15 4 -18 17 -18 65 0 49 3 59 18
59 16 1 16 1 0 14 -10 7 -18 21 -18 30 0 9 -4 16 -10 16 -5 0 -10 -9 -10 -19z"/>
<path d="M4985 825 c-5 -11 -13 -24 -19 -28 -8 -6 -7 -10 2 -14 7 -3 12 -24
12 -53 0 -63 7 -80 34 -80 19 1 19 2 4 11 -24 14 -26 119 -3 119 8 0 15 5 15
10 0 6 -6 10 -14 10 -8 0 -16 10 -19 23 -3 21 -4 21 -12 2z"/>
<path d="M5391 824 c0 -12 -9 -25 -18 -29 -17 -6 -17 -7 0 -16 13 -8 17 -23
17 -69 0 -56 2 -60 23 -60 20 1 20 2 5 11 -24 14 -26 119 -3 119 8 0 15 5 15
10 0 6 -6 10 -14 10 -8 0 -17 10 -19 23 -4 21 -4 21 -6 1z"/>
<path d="M2335 790 c-3 -5 -12 -7 -20 -3 -12 4 -15 -8 -15 -66 0 -41 4 -71 10
-71 6 0 10 24 10 53 0 55 6 71 30 79 35 12 50 -10 50 -72 0 -33 4 -60 10 -60
17 0 12 116 -6 134 -17 18 -59 21 -69 6z"/>
<path d="M2491 791 c-8 -5 -20 -7 -28 -4 -10 4 -13 -15 -13 -90 0 -53 4 -99
10 -102 6 -4 10 9 10 30 0 31 3 36 18 30 41 -17 52 -16 76 9 32 31 34 74 5
110 -21 26 -52 33 -78 17z m57 -17 c43 -30 23 -114 -28 -114 -50 0 -69 71 -30
110 24 24 29 24 58 4z"/>
<path d="M2620 740 c0 -92 4 -95 93 -89 27 1 27 2 27 70 0 39 -4 69 -10 69 -5
0 -10 -22 -10 -48 0 -58 -17 -85 -51 -80 -22 3 -24 8 -27 63 -4 84 -22 96 -22
15z"/>
<path d="M2866 784 c-30 -30 -16 -56 39 -70 34 -8 46 -21 38 -41 -7 -18 -53
-16 -75 4 -19 17 -24 8 -9 -16 6 -9 25 -15 46 -15 76 0 79 64 5 88 -38 12 -51
40 -24 50 9 4 28 -1 41 -10 30 -19 40 -13 18 10 -21 20 -59 21 -79 0z"/>
<path d="M5062 695 c1 -60 3 -93 5 -72 4 32 7 37 21 32 38 -16 49 -15 75 5 52
41 26 140 -36 140 -13 0 -29 -6 -35 -12 -10 -10 -15 -10 -22 2 -6 10 -9 -23
-8 -95z m106 31 c4 -45 -13 -68 -47 -64 -51 6 -65 99 -17 118 33 13 60 -11 64
-54z"/>
<path d="M5478 789 c-36 -20 -19 -59 32 -74 40 -12 52 -25 39 -41 -16 -19 -49
-18 -71 3 -17 15 -18 15 -18 -1 0 -22 46 -39 79 -28 20 7 26 15 26 37 0 29
-12 40 -57 50 -19 3 -28 12 -28 24 0 27 29 34 57 15 30 -19 40 -13 18 10 -19
18 -51 20 -77 5z"/>
<path d="M4820 730 c0 -52 3 -62 25 -76 16 -10 32 -13 47 -8 13 4 29 7 36 6 9
-2 12 17 12 68 0 40 -4 70 -10 70 -5 0 -10 -24 -10 -54 0 -59 -14 -80 -52 -74
-21 3 -23 9 -26 66 -4 79 -22 82 -22 2z"/>
<path d="M5220 735 c0 -65 26 -102 63 -90 12 4 30 7 40 6 15 0 17 10 17 70 0
39 -4 69 -10 69 -5 0 -10 -24 -10 -54 0 -59 -14 -80 -52 -74 -21 3 -23 9 -26
66 -4 77 -22 83 -22 7z"/>
<path d="M4337 475 c-29 -62 -16 -196 22 -219 5 -4 3 10 -6 31 -19 46 -21 125
-3 177 16 49 8 55 -13 11z"/>
<path d="M4520 410 c0 -60 4 -100 10 -100 6 0 10 24 10 54 0 45 4 58 22 70 15
11 26 12 40 5 14 -8 18 -22 18 -69 0 -33 4 -60 10 -60 6 0 10 28 10 65 0 60
-2 66 -25 77 -19 8 -31 8 -50 0 -24 -11 -25 -10 -25 23 0 19 -4 35 -10 35 -6
0 -10 -40 -10 -100z"/>
<path d="M4680 495 c0 -8 5 -15 10 -15 6 0 10 7 10 15 0 8 -4 15 -10 15 -5 0
-10 -7 -10 -15z"/>
<path d="M4747 503 c-4 -3 -7 -16 -7 -29 0 -12 -6 -25 -12 -27 -10 -4 -10 -6
0 -6 8 -1 12 -21 12 -66 0 -37 4 -65 10 -65 6 0 10 28 10 65 0 63 1 65 25 65
23 0 25 -3 25 -49 0 -64 7 -81 34 -81 19 1 19 2 4 11 -14 8 -18 23 -18 64 0
43 4 54 18 58 16 4 16 5 0 6 -12 1 -18 9 -18 26 0 14 -4 25 -10 25 -5 0 -10
-11 -10 -25 0 -20 -5 -25 -25 -25 -30 0 -35 33 -7 49 15 9 15 10 -4 11 -11 0
-24 -3 -27 -7z"/>
<path d="M5150 475 c0 -32 -2 -35 -19 -25 -30 16 -50 12 -76 -15 -33 -32 -33
-78 1 -111 20 -21 31 -24 52 -19 15 4 35 7 45 7 15 -1 17 10 17 99 0 59 -4 99
-10 99 -5 0 -10 -16 -10 -35z m-6 -69 c15 -41 -3 -80 -39 -84 -52 -6 -76 67
-35 108 25 25 61 14 74 -24z"/>
<path d="M5370 495 c0 -8 5 -15 10 -15 6 0 10 7 10 15 0 8 -4 15 -10 15 -5 0
-10 -7 -10 -15z"/>
<path d="M5580 410 c0 -60 4 -100 10 -100 6 0 10 24 10 54 0 45 4 58 22 70 15
11 26 12 40 5 14 -8 18 -22 18 -69 0 -33 4 -60 10 -60 6 0 10 28 10 65 0 60
-2 66 -25 77 -19 8 -31 8 -50 0 -24 -11 -25 -10 -25 23 0 19 -4 35 -10 35 -6
0 -10 -40 -10 -100z"/>
<path d="M5815 490 c4 -14 10 -42 16 -62 8 -34 1 -107 -16 -150 -13 -34 6 -18
21 17 21 50 17 142 -7 185 -16 27 -19 29 -14 10z"/>
<path d="M5740 476 c0 -13 -6 -27 -12 -29 -10 -4 -10 -6 0 -6 8 -1 12 -18 12
-50 0 -64 7 -81 34 -81 19 1 19 2 4 11 -14 8 -18 23 -18 64 0 46 3 55 18 55
16 1 16 1 0 11 -10 5 -18 19 -18 29 0 11 -4 20 -10 20 -5 0 -10 -11 -10 -24z"/>
<path d="M4406 447 c-31 -23 -17 -59 29 -71 29 -9 40 -17 40 -31 0 -27 -54
-34 -72 -9 -7 10 -16 14 -20 10 -10 -10 34 -46 56 -46 29 0 62 30 59 53 -2 16
-15 26 -43 35 -54 18 -65 30 -42 47 21 15 46 10 64 -14 11 -14 12 -14 13 1 0
18 -28 38 -52 38 -8 0 -22 -6 -32 -13z"/>
<path d="M4909 441 c-18 -14 -24 -29 -24 -61 0 -45 29 -80 65 -80 23 0 67 36
57 47 -5 4 -13 0 -18 -10 -14 -24 -65 -22 -79 3 -16 30 -4 40 51 40 42 0 49 3
49 20 0 25 -34 60 -59 60 -10 0 -29 -9 -42 -19z m79 -28 c3 -21 -1 -23 -42
-23 -50 0 -51 1 -35 31 15 29 73 23 77 -8z"/>
<path d="M5439 441 c-46 -37 -19 -131 37 -131 13 0 26 5 29 10 13 21 27 9 20
-17 -11 -45 -49 -57 -80 -27 -20 20 -33 11 -15 -11 15 -18 81 -20 98 -3 8 8
12 45 12 100 0 71 -3 86 -14 82 -8 -3 -17 -1 -21 5 -10 17 -40 13 -66 -8z m61
-1 c23 -12 33 -52 20 -84 -7 -20 -16 -26 -39 -26 -50 0 -69 62 -31 100 23 23
25 23 50 10z"/>
<path d="M4680 380 c0 -40 4 -70 10 -70 6 0 10 30 10 70 0 40 -4 70 -10 70 -6
0 -10 -30 -10 -70z"/>
<path d="M5280 378 c0 -39 4 -68 10 -68 6 0 10 22 10 49 0 42 4 53 26 70 l27
21 -36 -2 -37 -3 0 -67z"/>
<path d="M5370 380 c0 -40 4 -70 10 -70 6 0 10 30 10 70 0 40 -4 70 -10 70 -6
0 -10 -30 -10 -70z"/>
</g>
</svg>
